# Tiled2Unity generated file. Do not modify by hand.
# Wavefront file for 'bosque-2.3_mesh_0002.obj'

# Vertices (Count = 168)
v -20 -1 0
v -21 -1 0
v -21 0 0
v -20 0 0
v -8 -2 0
v -9 -2 0
v -9 -1 0
v -8 -1 0
v -19 -2 0
v -20 -2 0
v -20 -1 0
v -19 -1 0
v -20 -2 0
v -21 -2 0
v -21 -1 0
v -20 -1 0
v -21 -2 0
v -22 -2 0
v -22 -1 0
v -21 -1 0
v -7 -3 0
v -8 -3 0
v -8 -2 0
v -7 -2 0
v -8 -3 0
v -9 -3 0
v -9 -2 0
v -8 -2 0
v -9 -3 0
v -10 -3 0
v -10 -2 0
v -9 -2 0
v -19 -3 0
v -20 -3 0
v -20 -2 0
v -19 -2 0
v -20 -3 0
v -21 -3 0
v -21 -2 0
v -20 -2 0
v -21 -3 0
v -22 -3 0
v -22 -2 0
v -21 -2 0
v -7 -4 0
v -8 -4 0
v -8 -3 0
v -7 -3 0
v -8 -4 0
v -9 -4 0
v -9 -3 0
v -8 -3 0
v -9 -4 0
v -10 -4 0
v -10 -3 0
v -9 -3 0
v -20 -4 0
v -21 -4 0
v -21 -3 0
v -20 -3 0
v -8 -5 0
v -9 -5 0
v -9 -4 0
v -8 -4 0
v -20 -5 0
v -21 -5 0
v -21 -4 0
v -20 -4 0
v -21 -5 0
v -22 -5 0
v -22 -4 0
v -21 -4 0
v -22 -5 0
v -23 -5 0
v -23 -4 0
v -22 -4 0
v -8 -6 0
v -9 -6 0
v -9 -5 0
v -8 -5 0
v -9 -6 0
v -10 -6 0
v -10 -5 0
v -9 -5 0
v -10 -6 0
v -11 -6 0
v -11 -5 0
v -10 -5 0
v -20 -6 0
v -21 -6 0
v -21 -5 0
v -20 -5 0
v -8 -7 0
v -9 -7 0
v -9 -6 0
v -8 -6 0
v -20 -7 0
v -21 -7 0
v -21 -6 0
v -20 -6 0
v -8 -8 0
v -9 -8 0
v -9 -7 0
v -8 -7 0
v -20 -8 0
v -21 -8 0
v -21 -7 0
v -20 -7 0
v -6 -9 0
v -7 -9 0
v -7 -8 0
v -6 -8 0
v -7 -9 0
v -8 -9 0
v -8 -8 0
v -7 -8 0
v -8 -9 0
v -9 -9 0
v -9 -8 0
v -8 -8 0
v -20 -9 0
v -21 -9 0
v -21 -8 0
v -20 -8 0
v -8 -10 0
v -9 -10 0
v -9 -9 0
v -8 -9 0
v -20 -10 0
v -21 -10 0
v -21 -9 0
v -20 -9 0
v -8 -11 0
v -9 -11 0
v -9 -10 0
v -8 -10 0
v -17 -11 0
v -18 -11 0
v -18 -10 0
v -17 -10 0
v -18 -11 0
v -19 -11 0
v -19 -10 0
v -18 -10 0
v -19 -11 0
v -20 -11 0
v -20 -10 0
v -19 -10 0
v -20 -11 0
v -21 -11 0
v -21 -10 0
v -20 -10 0
v -8 -12 0
v -9 -12 0
v -9 -11 0
v -8 -11 0
v -20 -12 0
v -21 -12 0
v -21 -11 0
v -20 -11 0
v -8 -13 0
v -9 -13 0
v -9 -12 0
v -8 -12 0
v -20 -13 0
v -21 -13 0
v -21 -12 0
v -20 -12 0

# Texture cooridinates (Count = 64)
vt 0.002890173 0.2687861
vt 0.033237 0.2687861
vt 0.033237 0.2991329
vt 0.002890173 0.2991329
vt 0.2687861 0.2687861
vt 0.2991329 0.2687861
vt 0.2991329 0.2991329
vt 0.2687861 0.2991329
vt 0.3020231 0.2687861
vt 0.33237 0.2687861
vt 0.33237 0.2991329
vt 0.3020231 0.2991329
vt 0.3352601 0.2687861
vt 0.3656069 0.2687861
vt 0.3656069 0.2991329
vt 0.3352601 0.2991329
vt 0.2687861 0.2355492
vt 0.2991329 0.2355492
vt 0.2991329 0.265896
vt 0.2687861 0.265896
vt 0.3020231 0.2355492
vt 0.33237 0.2355492
vt 0.33237 0.265896
vt 0.3020231 0.265896
vt 0.3352601 0.2355492
vt 0.3656069 0.2355492
vt 0.3656069 0.265896
vt 0.3352601 0.265896
vt 0.1026012 0.2687861
vt 0.132948 0.2687861
vt 0.132948 0.2991329
vt 0.1026012 0.2991329
vt 0.1358382 0.2687861
vt 0.166185 0.2687861
vt 0.166185 0.2991329
vt 0.1358382 0.2991329
vt 0.1690751 0.2355492
vt 0.199422 0.2355492
vt 0.199422 0.265896
vt 0.1690751 0.265896
vt 0.2023121 0.2355492
vt 0.232659 0.2355492
vt 0.232659 0.265896
vt 0.2023121 0.265896
vt 0.1690751 0.2687861
vt 0.199422 0.2687861
vt 0.199422 0.2991329
vt 0.1690751 0.2991329
vt 0.2023121 0.2687861
vt 0.232659 0.2687861
vt 0.232659 0.2991329
vt 0.2023121 0.2991329
vt 0.2355491 0.2687861
vt 0.265896 0.2687861
vt 0.265896 0.2991329
vt 0.2355491 0.2991329
vt 0.1358382 0.2355492
vt 0.166185 0.2355492
vt 0.166185 0.265896
vt 0.1358382 0.265896
vt 0.03612717 0.2687861
vt 0.06647399 0.2687861
vt 0.06647399 0.2991329
vt 0.03612717 0.2991329

# Normal
vn 0 0 -1

# Mesh description
g bosque-2.3_mesh_0002

# Faces
f 1/1/1 2/2/1 3/3/1 4/4/1
f 5/1/1 6/2/1 7/3/1 8/4/1
f 9/5/1 10/6/1 11/7/1 12/8/1
f 13/9/1 14/10/1 15/11/1 16/12/1
f 17/13/1 18/14/1 19/15/1 20/16/1
f 21/5/1 22/6/1 23/7/1 24/8/1
f 25/9/1 26/10/1 27/11/1 28/12/1
f 29/13/1 30/14/1 31/15/1 32/16/1
f 33/17/1 34/18/1 35/19/1 36/20/1
f 37/21/1 38/22/1 39/23/1 40/24/1
f 41/25/1 42/26/1 43/27/1 44/28/1
f 45/17/1 46/18/1 47/19/1 48/20/1
f 49/21/1 50/22/1 51/23/1 52/24/1
f 53/25/1 54/26/1 55/27/1 56/28/1
f 57/29/1 58/30/1 59/31/1 60/32/1
f 61/29/1 62/30/1 63/31/1 64/32/1
f 65/33/1 66/34/1 67/35/1 68/36/1
f 69/37/1 70/38/1 71/39/1 72/40/1
f 73/41/1 74/42/1 75/43/1 76/44/1
f 77/33/1 78/34/1 79/35/1 80/36/1
f 81/45/1 82/46/1 83/47/1 84/48/1
f 85/49/1 86/50/1 87/51/1 88/52/1
f 89/29/1 90/30/1 91/31/1 92/32/1
f 93/29/1 94/30/1 95/31/1 96/32/1
f 97/29/1 98/30/1 99/31/1 100/32/1
f 101/29/1 102/30/1 103/31/1 104/32/1
f 105/29/1 106/30/1 107/31/1 108/32/1
f 109/53/1 110/54/1 111/55/1 112/56/1
f 113/45/1 114/46/1 115/47/1 116/48/1
f 117/57/1 118/58/1 119/59/1 120/60/1
f 121/29/1 122/30/1 123/31/1 124/32/1
f 125/29/1 126/30/1 127/31/1 128/32/1
f 129/29/1 130/30/1 131/31/1 132/32/1
f 133/29/1 134/30/1 135/31/1 136/32/1
f 137/53/1 138/54/1 139/55/1 140/56/1
f 141/37/1 142/38/1 143/39/1 144/40/1
f 145/37/1 146/38/1 147/39/1 148/40/1
f 149/57/1 150/58/1 151/59/1 152/60/1
f 153/29/1 154/30/1 155/31/1 156/32/1
f 157/29/1 158/30/1 159/31/1 160/32/1
f 161/61/1 162/62/1 163/63/1 164/64/1
f 165/61/1 166/62/1 167/63/1 168/64/1

