# Tiled2Unity generated file. Do not modify by hand.
# Wavefront file for 'bosque-2.3_mesh_0005.obj'

# Vertices (Count = 24)
v 0 -13 0
v -1 -13 0
v -1 -12 0
v 0 -12 0
v -3 -13 0
v -4 -13 0
v -4 -12 0
v -3 -12 0
v -11 -13 0
v -12 -13 0
v -12 -12 0
v -11 -12 0
v -12 -13 0
v -13 -13 0
v -13 -12 0
v -12 -12 0
v -3 -14 0
v -4 -14 0
v -4 -13 0
v -3 -13 0
v -3 -15 0
v -4 -15 0
v -4 -14 0
v -3 -14 0

# Texture cooridinates (Count = 16)
vt 0.3684971 0.867052
vt 0.3988439 0.867052
vt 0.3988439 0.8973988
vt 0.3684971 0.8973988
vt 0.4349711 0.867052
vt 0.4653179 0.867052
vt 0.4653179 0.8973988
vt 0.4349711 0.8973988
vt 0.3352601 0.867052
vt 0.3656069 0.867052
vt 0.3656069 0.8973988
vt 0.3352601 0.8973988
vt 0.4017341 0.867052
vt 0.4320809 0.867052
vt 0.4320809 0.8973988
vt 0.4017341 0.8973988

# Normal
vn 0 0 -1

# Mesh description
g bosque-2.3_mesh_0005

# Faces
f 1/1/1 2/2/1 3/3/1 4/4/1
f 5/5/1 6/6/1 7/7/1 8/8/1
f 9/9/1 10/10/1 11/11/1 12/12/1
f 13/1/1 14/2/1 15/3/1 16/4/1
f 17/13/1 18/14/1 19/15/1 20/16/1
f 21/13/1 22/14/1 23/15/1 24/16/1

