# Tiled2Unity generated file. Do not modify by hand.
# Wavefront file for 'bosque-2.1_mesh_0001.obj'

# Vertices (Count = 444)
v -28 -4 0
v -29 -4 0
v -29 -3 0
v -28 -3 0
v -29 -4 0
v -30 -4 0
v -30 -3 0
v -29 -3 0
v -27 -5 0
v -28 -5 0
v -28 -4 0
v -27 -4 0
v -28 -5 0
v -29 -5 0
v -29 -4 0
v -28 -4 0
v -29 -5 0
v -30 -5 0
v -30 -4 0
v -29 -4 0
v -26 -6 0
v -27 -6 0
v -27 -5 0
v -26 -5 0
v -27 -6 0
v -28 -6 0
v -28 -5 0
v -27 -5 0
v -28 -6 0
v -29 -6 0
v -29 -5 0
v -28 -5 0
v -29 -6 0
v -30 -6 0
v -30 -5 0
v -29 -5 0
v -25 -7 0
v -26 -7 0
v -26 -6 0
v -25 -6 0
v -26 -7 0
v -27 -7 0
v -27 -6 0
v -26 -6 0
v -27 -7 0
v -28 -7 0
v -28 -6 0
v -27 -6 0
v -28 -7 0
v -29 -7 0
v -29 -6 0
v -28 -6 0
v -29 -7 0
v -30 -7 0
v -30 -6 0
v -29 -6 0
v -24 -8 0
v -25 -8 0
v -25 -7 0
v -24 -7 0
v -25 -8 0
v -26 -8 0
v -26 -7 0
v -25 -7 0
v -26 -8 0
v -27 -8 0
v -27 -7 0
v -26 -7 0
v -27 -8 0
v -28 -8 0
v -28 -7 0
v -27 -7 0
v -28 -8 0
v -29 -8 0
v -29 -7 0
v -28 -7 0
v -29 -8 0
v -30 -8 0
v -30 -7 0
v -29 -7 0
v -23 -9 0
v -24 -9 0
v -24 -8 0
v -23 -8 0
v -24 -9 0
v -25 -9 0
v -25 -8 0
v -24 -8 0
v -25 -9 0
v -26 -9 0
v -26 -8 0
v -25 -8 0
v -26 -9 0
v -27 -9 0
v -27 -8 0
v -26 -8 0
v -27 -9 0
v -28 -9 0
v -28 -8 0
v -27 -8 0
v -28 -9 0
v -29 -9 0
v -29 -8 0
v -28 -8 0
v -29 -9 0
v -30 -9 0
v -30 -8 0
v -29 -8 0
v 0 -10 0
v -1 -10 0
v -1 -9 0
v 0 -9 0
v -1 -10 0
v -2 -10 0
v -2 -9 0
v -1 -9 0
v -2 -10 0
v -3 -10 0
v -3 -9 0
v -2 -9 0
v -3 -10 0
v -4 -10 0
v -4 -9 0
v -3 -9 0
v -4 -10 0
v -5 -10 0
v -5 -9 0
v -4 -9 0
v -5 -10 0
v -6 -10 0
v -6 -9 0
v -5 -9 0
v -6 -10 0
v -7 -10 0
v -7 -9 0
v -6 -9 0
v -23 -10 0
v -24 -10 0
v -24 -9 0
v -23 -9 0
v -24 -10 0
v -25 -10 0
v -25 -9 0
v -24 -9 0
v -25 -10 0
v -26 -10 0
v -26 -9 0
v -25 -9 0
v -26 -10 0
v -27 -10 0
v -27 -9 0
v -26 -9 0
v -27 -10 0
v -28 -10 0
v -28 -9 0
v -27 -9 0
v -28 -10 0
v -29 -10 0
v -29 -9 0
v -28 -9 0
v -29 -10 0
v -30 -10 0
v -30 -9 0
v -29 -9 0
v 0 -11 0
v -1 -11 0
v -1 -10 0
v 0 -10 0
v -1 -11 0
v -2 -11 0
v -2 -10 0
v -1 -10 0
v -2 -11 0
v -3 -11 0
v -3 -10 0
v -2 -10 0
v -3 -11 0
v -4 -11 0
v -4 -10 0
v -3 -10 0
v -4 -11 0
v -5 -11 0
v -5 -10 0
v -4 -10 0
v -5 -11 0
v -6 -11 0
v -6 -10 0
v -5 -10 0
v -6 -11 0
v -7 -11 0
v -7 -10 0
v -6 -10 0
v -23 -11 0
v -24 -11 0
v -24 -10 0
v -23 -10 0
v -24 -11 0
v -25 -11 0
v -25 -10 0
v -24 -10 0
v -25 -11 0
v -26 -11 0
v -26 -10 0
v -25 -10 0
v -26 -11 0
v -27 -11 0
v -27 -10 0
v -26 -10 0
v -27 -11 0
v -28 -11 0
v -28 -10 0
v -27 -10 0
v -28 -11 0
v -29 -11 0
v -29 -10 0
v -28 -10 0
v -29 -11 0
v -30 -11 0
v -30 -10 0
v -29 -10 0
v 0 -12 0
v -1 -12 0
v -1 -11 0
v 0 -11 0
v -1 -12 0
v -2 -12 0
v -2 -11 0
v -1 -11 0
v -2 -12 0
v -3 -12 0
v -3 -11 0
v -2 -11 0
v -3 -12 0
v -4 -12 0
v -4 -11 0
v -3 -11 0
v -4 -12 0
v -5 -12 0
v -5 -11 0
v -4 -11 0
v -5 -12 0
v -6 -12 0
v -6 -11 0
v -5 -11 0
v -6 -12 0
v -7 -12 0
v -7 -11 0
v -6 -11 0
v -23 -12 0
v -24 -12 0
v -24 -11 0
v -23 -11 0
v -24 -12 0
v -25 -12 0
v -25 -11 0
v -24 -11 0
v -25 -12 0
v -26 -12 0
v -26 -11 0
v -25 -11 0
v -26 -12 0
v -27 -12 0
v -27 -11 0
v -26 -11 0
v -27 -12 0
v -28 -12 0
v -28 -11 0
v -27 -11 0
v -28 -12 0
v -29 -12 0
v -29 -11 0
v -28 -11 0
v -29 -12 0
v -30 -12 0
v -30 -11 0
v -29 -11 0
v 0 -13 0
v -1 -13 0
v -1 -12 0
v 0 -12 0
v -1 -13 0
v -2 -13 0
v -2 -12 0
v -1 -12 0
v -2 -13 0
v -3 -13 0
v -3 -12 0
v -2 -12 0
v -3 -13 0
v -4 -13 0
v -4 -12 0
v -3 -12 0
v -4 -13 0
v -5 -13 0
v -5 -12 0
v -4 -12 0
v -5 -13 0
v -6 -13 0
v -6 -12 0
v -5 -12 0
v -6 -13 0
v -7 -13 0
v -7 -12 0
v -6 -12 0
v -23 -13 0
v -24 -13 0
v -24 -12 0
v -23 -12 0
v -24 -13 0
v -25 -13 0
v -25 -12 0
v -24 -12 0
v -25 -13 0
v -26 -13 0
v -26 -12 0
v -25 -12 0
v -26 -13 0
v -27 -13 0
v -27 -12 0
v -26 -12 0
v -27 -13 0
v -28 -13 0
v -28 -12 0
v -27 -12 0
v -28 -13 0
v -29 -13 0
v -29 -12 0
v -28 -12 0
v -29 -13 0
v -30 -13 0
v -30 -12 0
v -29 -12 0
v 0 -14 0
v -1 -14 0
v -1 -13 0
v 0 -13 0
v -1 -14 0
v -2 -14 0
v -2 -13 0
v -1 -13 0
v -2 -14 0
v -3 -14 0
v -3 -13 0
v -2 -13 0
v -3 -14 0
v -4 -14 0
v -4 -13 0
v -3 -13 0
v -4 -14 0
v -5 -14 0
v -5 -13 0
v -4 -13 0
v -5 -14 0
v -6 -14 0
v -6 -13 0
v -5 -13 0
v -6 -14 0
v -7 -14 0
v -7 -13 0
v -6 -13 0
v -23 -14 0
v -24 -14 0
v -24 -13 0
v -23 -13 0
v -24 -14 0
v -25 -14 0
v -25 -13 0
v -24 -13 0
v -25 -14 0
v -26 -14 0
v -26 -13 0
v -25 -13 0
v -26 -14 0
v -27 -14 0
v -27 -13 0
v -26 -13 0
v -27 -14 0
v -28 -14 0
v -28 -13 0
v -27 -13 0
v -28 -14 0
v -29 -14 0
v -29 -13 0
v -28 -13 0
v -29 -14 0
v -30 -14 0
v -30 -13 0
v -29 -13 0
v 0 -15 0
v -1 -15 0
v -1 -14 0
v 0 -14 0
v -1 -15 0
v -2 -15 0
v -2 -14 0
v -1 -14 0
v -2 -15 0
v -3 -15 0
v -3 -14 0
v -2 -14 0
v -3 -15 0
v -4 -15 0
v -4 -14 0
v -3 -14 0
v -4 -15 0
v -5 -15 0
v -5 -14 0
v -4 -14 0
v -5 -15 0
v -6 -15 0
v -6 -14 0
v -5 -14 0
v -6 -15 0
v -7 -15 0
v -7 -14 0
v -6 -14 0
v -23 -15 0
v -24 -15 0
v -24 -14 0
v -23 -14 0
v -24 -15 0
v -25 -15 0
v -25 -14 0
v -24 -14 0
v -25 -15 0
v -26 -15 0
v -26 -14 0
v -25 -14 0
v -26 -15 0
v -27 -15 0
v -27 -14 0
v -26 -14 0
v -27 -15 0
v -28 -15 0
v -28 -14 0
v -27 -14 0
v -28 -15 0
v -29 -15 0
v -29 -14 0
v -28 -14 0
v -29 -15 0
v -30 -15 0
v -30 -14 0
v -29 -14 0

# Texture cooridinates (Count = 16)
vt 0.2023121 0.833815
vt 0.232659 0.833815
vt 0.232659 0.8641618
vt 0.2023121 0.8641618
vt 0.06936416 0.833815
vt 0.09971099 0.833815
vt 0.09971099 0.8641618
vt 0.06936416 0.8641618
vt 0.2023121 0.800578
vt 0.232659 0.800578
vt 0.232659 0.8309249
vt 0.2023121 0.8309249
vt 0.06936416 0.800578
vt 0.09971099 0.800578
vt 0.09971099 0.8309249
vt 0.06936416 0.8309249

# Normal
vn 0 0 -1

# Mesh description
g bosque-2.1_mesh_0001

# Faces
f 1/1/1 2/2/1 3/3/1 4/4/1
f 5/5/1 6/6/1 7/7/1 8/8/1
f 9/1/1 10/2/1 11/3/1 12/4/1
f 13/9/1 14/10/1 15/11/1 16/12/1
f 17/13/1 18/14/1 19/15/1 20/16/1
f 21/1/1 22/2/1 23/3/1 24/4/1
f 25/9/1 26/10/1 27/11/1 28/12/1
f 29/13/1 30/14/1 31/15/1 32/16/1
f 33/13/1 34/14/1 35/15/1 36/16/1
f 37/1/1 38/2/1 39/3/1 40/4/1
f 41/9/1 42/10/1 43/11/1 44/12/1
f 45/13/1 46/14/1 47/15/1 48/16/1
f 49/13/1 50/14/1 51/15/1 52/16/1
f 53/13/1 54/14/1 55/15/1 56/16/1
f 57/1/1 58/2/1 59/3/1 60/4/1
f 61/9/1 62/10/1 63/11/1 64/12/1
f 65/13/1 66/14/1 67/15/1 68/16/1
f 69/13/1 70/14/1 71/15/1 72/16/1
f 73/13/1 74/14/1 75/15/1 76/16/1
f 77/13/1 78/14/1 79/15/1 80/16/1
f 81/5/1 82/6/1 83/7/1 84/8/1
f 85/9/1 86/10/1 87/11/1 88/12/1
f 89/13/1 90/14/1 91/15/1 92/16/1
f 93/13/1 94/14/1 95/15/1 96/16/1
f 97/5/1 98/6/1 99/7/1 100/8/1
f 101/5/1 102/6/1 103/7/1 104/8/1
f 105/13/1 106/14/1 107/15/1 108/16/1
f 109/5/1 110/6/1 111/7/1 112/8/1
f 113/5/1 114/6/1 115/7/1 116/8/1
f 117/5/1 118/6/1 119/7/1 120/8/1
f 121/5/1 122/6/1 123/7/1 124/8/1
f 125/5/1 126/6/1 127/7/1 128/8/1
f 129/5/1 130/6/1 131/7/1 132/8/1
f 133/5/1 134/6/1 135/7/1 136/8/1
f 137/13/1 138/14/1 139/15/1 140/16/1
f 141/13/1 142/14/1 143/15/1 144/16/1
f 145/13/1 146/14/1 147/15/1 148/16/1
f 149/13/1 150/14/1 151/15/1 152/16/1
f 153/13/1 154/14/1 155/15/1 156/16/1
f 157/13/1 158/14/1 159/15/1 160/16/1
f 161/13/1 162/14/1 163/15/1 164/16/1
f 165/13/1 166/14/1 167/15/1 168/16/1
f 169/13/1 170/14/1 171/15/1 172/16/1
f 173/13/1 174/14/1 175/15/1 176/16/1
f 177/13/1 178/14/1 179/15/1 180/16/1
f 181/13/1 182/14/1 183/15/1 184/16/1
f 185/13/1 186/14/1 187/15/1 188/16/1
f 189/13/1 190/14/1 191/15/1 192/16/1
f 193/13/1 194/14/1 195/15/1 196/16/1
f 197/5/1 198/6/1 199/7/1 200/8/1
f 201/5/1 202/6/1 203/7/1 204/8/1
f 205/13/1 206/14/1 207/15/1 208/16/1
f 209/13/1 210/14/1 211/15/1 212/16/1
f 213/13/1 214/14/1 215/15/1 216/16/1
f 217/13/1 218/14/1 219/15/1 220/16/1
f 221/13/1 222/14/1 223/15/1 224/16/1
f 225/13/1 226/14/1 227/15/1 228/16/1
f 229/13/1 230/14/1 231/15/1 232/16/1
f 233/5/1 234/6/1 235/7/1 236/8/1
f 237/5/1 238/6/1 239/7/1 240/8/1
f 241/13/1 242/14/1 243/15/1 244/16/1
f 245/13/1 246/14/1 247/15/1 248/16/1
f 249/13/1 250/14/1 251/15/1 252/16/1
f 253/13/1 254/14/1 255/15/1 256/16/1
f 257/13/1 258/14/1 259/15/1 260/16/1
f 261/13/1 262/14/1 263/15/1 264/16/1
f 265/13/1 266/14/1 267/15/1 268/16/1
f 269/13/1 270/14/1 271/15/1 272/16/1
f 273/13/1 274/14/1 275/15/1 276/16/1
f 277/13/1 278/14/1 279/15/1 280/16/1
f 281/13/1 282/14/1 283/15/1 284/16/1
f 285/13/1 286/14/1 287/15/1 288/16/1
f 289/13/1 290/14/1 291/15/1 292/16/1
f 293/13/1 294/14/1 295/15/1 296/16/1
f 297/13/1 298/14/1 299/15/1 300/16/1
f 301/13/1 302/14/1 303/15/1 304/16/1
f 305/13/1 306/14/1 307/15/1 308/16/1
f 309/13/1 310/14/1 311/15/1 312/16/1
f 313/13/1 314/14/1 315/15/1 316/16/1
f 317/13/1 318/14/1 319/15/1 320/16/1
f 321/13/1 322/14/1 323/15/1 324/16/1
f 325/13/1 326/14/1 327/15/1 328/16/1
f 329/13/1 330/14/1 331/15/1 332/16/1
f 333/5/1 334/6/1 335/7/1 336/8/1
f 337/5/1 338/6/1 339/7/1 340/8/1
f 341/13/1 342/14/1 343/15/1 344/16/1
f 345/13/1 346/14/1 347/15/1 348/16/1
f 349/13/1 350/14/1 351/15/1 352/16/1
f 353/13/1 354/14/1 355/15/1 356/16/1
f 357/13/1 358/14/1 359/15/1 360/16/1
f 361/13/1 362/14/1 363/15/1 364/16/1
f 365/13/1 366/14/1 367/15/1 368/16/1
f 369/13/1 370/14/1 371/15/1 372/16/1
f 373/5/1 374/6/1 375/7/1 376/8/1
f 377/5/1 378/6/1 379/7/1 380/8/1
f 381/5/1 382/6/1 383/7/1 384/8/1
f 385/13/1 386/14/1 387/15/1 388/16/1
f 389/13/1 390/14/1 391/15/1 392/16/1
f 393/13/1 394/14/1 395/15/1 396/16/1
f 397/13/1 398/14/1 399/15/1 400/16/1
f 401/13/1 402/14/1 403/15/1 404/16/1
f 405/13/1 406/14/1 407/15/1 408/16/1
f 409/13/1 410/14/1 411/15/1 412/16/1
f 413/13/1 414/14/1 415/15/1 416/16/1
f 417/13/1 418/14/1 419/15/1 420/16/1
f 421/13/1 422/14/1 423/15/1 424/16/1
f 425/13/1 426/14/1 427/15/1 428/16/1
f 429/13/1 430/14/1 431/15/1 432/16/1
f 433/13/1 434/14/1 435/15/1 436/16/1
f 437/13/1 438/14/1 439/15/1 440/16/1
f 441/13/1 442/14/1 443/15/1 444/16/1

