# Tiled2Unity generated file. Do not modify by hand.
# Wavefront file for 'bunkerE1.22_mesh_0003.obj'

# Vertices (Count = 52)
v 0 -7 0
v -1 -7 0
v -1 -6 0
v 0 -6 0
v 0 -6 0
v -1 -6 0
v -1 -5 0
v 0 -5 0
v -18 -6 0
v -19 -6 0
v -19 -5 0
v -18 -5 0
v -19 -6 0
v -20 -6 0
v -20 -5 0
v -19 -5 0
v -19 -5 0
v -20 -5 0
v -20 -4 0
v -19 -4 0
v -16 -4 0
v -17 -4 0
v -17 -3 0
v -16 -3 0
v -9 -3 0
v -10 -3 0
v -10 -2 0
v -9 -2 0
v -10 -3 0
v -11 -3 0
v -11 -2 0
v -10 -2 0
v -11 -3 0
v -12 -3 0
v -12 -2 0
v -11 -2 0
v -12 -3 0
v -13 -3 0
v -13 -2 0
v -12 -2 0
v -13 -3 0
v -14 -3 0
v -14 -2 0
v -13 -2 0
v -13 -2 0
v -14 -2 0
v -14 -1 0
v -13 -1 0
v -8 -1 0
v -9 -1 0
v -9 0 0
v -8 0 0

# Texture cooridinates (Count = 44)
vt 0.5679191 0.833815
vt 0.5982659 0.833815
vt 0.5982659 0.8641618
vt 0.5679191 0.8641618
vt 0.5346821 0.833815
vt 0.5650289 0.833815
vt 0.5650289 0.8641618
vt 0.5346821 0.8641618
vt 0.5679191 0.5346821
vt 0.5982659 0.5346821
vt 0.5982659 0.5650289
vt 0.5679191 0.5650289
vt 0.4349711 0.1690751
vt 0.4653179 0.1690751
vt 0.4653179 0.1994219
vt 0.4349711 0.1994219
vt 0.4349711 0.2023121
vt 0.4653179 0.2023121
vt 0.4653179 0.232659
vt 0.4349711 0.232659
vt 0.5346821 0.1690751
vt 0.5650289 0.1690751
vt 0.5650289 0.1994219
vt 0.5346821 0.1994219
vt 0.4682081 0.1358382
vt 0.4985549 0.1358382
vt 0.4985549 0.166185
vt 0.4682081 0.166185
vt 0.5014451 0.1690751
vt 0.5317919 0.1690751
vt 0.5317919 0.1994219
vt 0.5014451 0.1994219
vt 0.6011561 0.1358382
vt 0.6315029 0.1358382
vt 0.6315029 0.166185
vt 0.6011561 0.166185
vt 0.4682081 0.966763
vt 0.4985549 0.966763
vt 0.4985549 0.9971098
vt 0.4682081 0.9971098
vt 0.6011561 0.933526
vt 0.6315029 0.933526
vt 0.6315029 0.9638728
vt 0.6011561 0.9638728

# Normal
vn 0 0 -1

# Mesh description
g bunkerE1.22_mesh_0003

# Faces
f 1/1/1 2/2/1 3/3/1 4/4/1
f 5/5/1 6/6/1 7/7/1 8/8/1
f 9/9/1 10/10/1 11/11/1 12/12/1
f 13/13/1 14/14/1 15/15/1 16/16/1
f 17/17/1 18/18/1 19/19/1 20/20/1
f 21/21/1 22/22/1 23/23/1 24/24/1
f 25/25/1 26/26/1 27/27/1 28/28/1
f 29/29/1 30/30/1 31/31/1 32/32/1
f 33/29/1 34/30/1 35/31/1 36/32/1
f 37/29/1 38/30/1 39/31/1 40/32/1
f 41/33/1 42/34/1 43/35/1 44/36/1
f 45/37/1 46/38/1 47/39/1 48/40/1
f 49/41/1 50/42/1 51/43/1 52/44/1

