# Tiled2Unity generated file. Do not modify by hand.
# Wavefront file for 'bosque-2.2_mesh_0001.obj'

# Vertices (Count = 404)
v -4 -1 0
v -5 -1 0
v -5 0 0
v -4 0 0
v -3 -2 0
v -4 -2 0
v -4 -1 0
v -3 -1 0
v -4 -2 0
v -5 -2 0
v -5 -1 0
v -4 -1 0
v -5 -2 0
v -6 -2 0
v -6 -1 0
v -5 -1 0
v -16 -2 0
v -17 -2 0
v -17 -1 0
v -16 -1 0
v -3 -3 0
v -4 -3 0
v -4 -2 0
v -3 -2 0
v -4 -3 0
v -5 -3 0
v -5 -2 0
v -4 -2 0
v -5 -3 0
v -6 -3 0
v -6 -2 0
v -5 -2 0
v -9 -3 0
v -10 -3 0
v -10 -2 0
v -9 -2 0
v -15 -3 0
v -16 -3 0
v -16 -2 0
v -15 -2 0
v -16 -3 0
v -17 -3 0
v -17 -2 0
v -16 -2 0
v -17 -3 0
v -18 -3 0
v -18 -2 0
v -17 -2 0
v -3 -4 0
v -4 -4 0
v -4 -3 0
v -3 -3 0
v -4 -4 0
v -5 -4 0
v -5 -3 0
v -4 -3 0
v -5 -4 0
v -6 -4 0
v -6 -3 0
v -5 -3 0
v -8 -4 0
v -9 -4 0
v -9 -3 0
v -8 -3 0
v -9 -4 0
v -10 -4 0
v -10 -3 0
v -9 -3 0
v -10 -4 0
v -11 -4 0
v -11 -3 0
v -10 -3 0
v -15 -4 0
v -16 -4 0
v -16 -3 0
v -15 -3 0
v -16 -4 0
v -17 -4 0
v -17 -3 0
v -16 -3 0
v -17 -4 0
v -18 -4 0
v -18 -3 0
v -17 -3 0
v -3 -5 0
v -4 -5 0
v -4 -4 0
v -3 -4 0
v -4 -5 0
v -5 -5 0
v -5 -4 0
v -4 -4 0
v -5 -5 0
v -6 -5 0
v -6 -4 0
v -5 -4 0
v -8 -5 0
v -9 -5 0
v -9 -4 0
v -8 -4 0
v -9 -5 0
v -10 -5 0
v -10 -4 0
v -9 -4 0
v -10 -5 0
v -11 -5 0
v -11 -4 0
v -10 -4 0
v -15 -5 0
v -16 -5 0
v -16 -4 0
v -15 -4 0
v -16 -5 0
v -17 -5 0
v -17 -4 0
v -16 -4 0
v -17 -5 0
v -18 -5 0
v -18 -4 0
v -17 -4 0
v -21 -5 0
v -22 -5 0
v -22 -4 0
v -21 -4 0
v -4 -6 0
v -5 -6 0
v -5 -5 0
v -4 -5 0
v -8 -6 0
v -9 -6 0
v -9 -5 0
v -8 -5 0
v -9 -6 0
v -10 -6 0
v -10 -5 0
v -9 -5 0
v -10 -6 0
v -11 -6 0
v -11 -5 0
v -10 -5 0
v -15 -6 0
v -16 -6 0
v -16 -5 0
v -15 -5 0
v -16 -6 0
v -17 -6 0
v -17 -5 0
v -16 -5 0
v -17 -6 0
v -18 -6 0
v -18 -5 0
v -17 -5 0
v -21 -6 0
v -22 -6 0
v -22 -5 0
v -21 -5 0
v -28 -6 0
v -29 -6 0
v -29 -5 0
v -28 -5 0
v -29 -6 0
v -30 -6 0
v -30 -5 0
v -29 -5 0
v -3 -7 0
v -4 -7 0
v -4 -6 0
v -3 -6 0
v -4 -7 0
v -5 -7 0
v -5 -6 0
v -4 -6 0
v -8 -7 0
v -9 -7 0
v -9 -6 0
v -8 -6 0
v -9 -7 0
v -10 -7 0
v -10 -6 0
v -9 -6 0
v -10 -7 0
v -11 -7 0
v -11 -6 0
v -10 -6 0
v -16 -7 0
v -17 -7 0
v -17 -6 0
v -16 -6 0
v -21 -7 0
v -22 -7 0
v -22 -6 0
v -21 -6 0
v -26 -7 0
v -27 -7 0
v -27 -6 0
v -26 -6 0
v -27 -7 0
v -28 -7 0
v -28 -6 0
v -27 -6 0
v -28 -7 0
v -29 -7 0
v -29 -6 0
v -28 -6 0
v -29 -7 0
v -30 -7 0
v -30 -6 0
v -29 -6 0
v -4 -8 0
v -5 -8 0
v -5 -7 0
v -4 -7 0
v -5 -8 0
v -6 -8 0
v -6 -7 0
v -5 -7 0
v -6 -8 0
v -7 -8 0
v -7 -7 0
v -6 -7 0
v -9 -8 0
v -10 -8 0
v -10 -7 0
v -9 -7 0
v -16 -8 0
v -17 -8 0
v -17 -7 0
v -16 -7 0
v -17 -8 0
v -18 -8 0
v -18 -7 0
v -17 -7 0
v -18 -8 0
v -19 -8 0
v -19 -7 0
v -18 -7 0
v -21 -8 0
v -22 -8 0
v -22 -7 0
v -21 -7 0
v -22 -8 0
v -23 -8 0
v -23 -7 0
v -22 -7 0
v -23 -8 0
v -24 -8 0
v -24 -7 0
v -23 -7 0
v -26 -8 0
v -27 -8 0
v -27 -7 0
v -26 -7 0
v -27 -8 0
v -28 -8 0
v -28 -7 0
v -27 -7 0
v -28 -8 0
v -29 -8 0
v -29 -7 0
v -28 -7 0
v -29 -8 0
v -30 -8 0
v -30 -7 0
v -29 -7 0
v -4 -9 0
v -5 -9 0
v -5 -8 0
v -4 -8 0
v -9 -9 0
v -10 -9 0
v -10 -8 0
v -9 -8 0
v -10 -9 0
v -11 -9 0
v -11 -8 0
v -10 -8 0
v -11 -9 0
v -12 -9 0
v -12 -8 0
v -11 -8 0
v -16 -9 0
v -17 -9 0
v -17 -8 0
v -16 -8 0
v -21 -9 0
v -22 -9 0
v -22 -8 0
v -21 -8 0
v -22 -9 0
v -23 -9 0
v -23 -8 0
v -22 -8 0
v -23 -9 0
v -24 -9 0
v -24 -8 0
v -23 -8 0
v -4 -10 0
v -5 -10 0
v -5 -9 0
v -4 -9 0
v -9 -10 0
v -10 -10 0
v -10 -9 0
v -9 -9 0
v -16 -10 0
v -17 -10 0
v -17 -9 0
v -16 -9 0
v -21 -10 0
v -22 -10 0
v -22 -9 0
v -21 -9 0
v -4 -11 0
v -5 -11 0
v -5 -10 0
v -4 -10 0
v -9 -11 0
v -10 -11 0
v -10 -10 0
v -9 -10 0
v -16 -11 0
v -17 -11 0
v -17 -10 0
v -16 -10 0
v -21 -11 0
v -22 -11 0
v -22 -10 0
v -21 -10 0
v -4 -12 0
v -5 -12 0
v -5 -11 0
v -4 -11 0
v -9 -12 0
v -10 -12 0
v -10 -11 0
v -9 -11 0
v -16 -12 0
v -17 -12 0
v -17 -11 0
v -16 -11 0
v -21 -12 0
v -22 -12 0
v -22 -11 0
v -21 -11 0
v -1 -13 0
v -2 -13 0
v -2 -12 0
v -1 -12 0
v -4 -13 0
v -5 -13 0
v -5 -12 0
v -4 -12 0
v -9 -13 0
v -10 -13 0
v -10 -12 0
v -9 -12 0
v -16 -13 0
v -17 -13 0
v -17 -12 0
v -16 -12 0
v -21 -13 0
v -22 -13 0
v -22 -12 0
v -21 -12 0
v 0 -14 0
v -1 -14 0
v -1 -13 0
v 0 -13 0
v -1 -14 0
v -2 -14 0
v -2 -13 0
v -1 -13 0
v -4 -14 0
v -5 -14 0
v -5 -13 0
v -4 -13 0
v -9 -14 0
v -10 -14 0
v -10 -13 0
v -9 -13 0
v -16 -14 0
v -17 -14 0
v -17 -13 0
v -16 -13 0
v -21 -14 0
v -22 -14 0
v -22 -13 0
v -21 -13 0
v 0 -15 0
v -1 -15 0
v -1 -14 0
v 0 -14 0
v -1 -15 0
v -2 -15 0
v -2 -14 0
v -1 -14 0
v -9 -15 0
v -10 -15 0
v -10 -14 0
v -9 -14 0
v -21 -15 0
v -22 -15 0
v -22 -14 0
v -21 -14 0

# Texture cooridinates (Count = 84)
vt 0.002890173 0.2355492
vt 0.033237 0.2355492
vt 0.033237 0.265896
vt 0.002890173 0.265896
vt 0.3684971 0.2687861
vt 0.3988439 0.2687861
vt 0.3988439 0.2991329
vt 0.3684971 0.2991329
vt 0.3020231 0.2355492
vt 0.33237 0.2355492
vt 0.33237 0.265896
vt 0.3020231 0.265896
vt 0.4017341 0.2687861
vt 0.4320809 0.2687861
vt 0.4320809 0.2991329
vt 0.4017341 0.2991329
vt 0.3684971 0.2355492
vt 0.3988439 0.2355492
vt 0.3988439 0.265896
vt 0.3684971 0.265896
vt 0.4017341 0.2355492
vt 0.4320809 0.2355492
vt 0.4320809 0.265896
vt 0.4017341 0.265896
vt 0.1026012 0.2355492
vt 0.132948 0.2355492
vt 0.132948 0.265896
vt 0.1026012 0.265896
vt 0.1026012 0.2687861
vt 0.132948 0.2687861
vt 0.132948 0.2991329
vt 0.1026012 0.2991329
vt 0.2687861 0.00289017
vt 0.2991329 0.00289017
vt 0.2991329 0.03323698
vt 0.2687861 0.03323698
vt 0.06936416 0.3020231
vt 0.09971099 0.3020231
vt 0.09971099 0.3323699
vt 0.06936416 0.3323699
vt 0.2355491 0.2355492
vt 0.265896 0.2355492
vt 0.265896 0.265896
vt 0.2355491 0.265896
vt 0.1358382 0.2355492
vt 0.166185 0.2355492
vt 0.166185 0.265896
vt 0.1358382 0.265896
vt 0.06936416 0.833815
vt 0.09971099 0.833815
vt 0.09971099 0.8641618
vt 0.06936416 0.8641618
vt 0.1358382 0.2687861
vt 0.166185 0.2687861
vt 0.166185 0.2991329
vt 0.1358382 0.2991329
vt 0.1690751 0.2687861
vt 0.199422 0.2687861
vt 0.199422 0.2991329
vt 0.1690751 0.2991329
vt 0.2023121 0.2687861
vt 0.232659 0.2687861
vt 0.232659 0.2991329
vt 0.2023121 0.2991329
vt 0.06936416 0.800578
vt 0.09971099 0.800578
vt 0.09971099 0.8309249
vt 0.06936416 0.8309249
vt 0.4349711 0.6676301
vt 0.4653179 0.6676301
vt 0.4653179 0.6979769
vt 0.4349711 0.6979769
vt 0.06936416 0.2355492
vt 0.09971099 0.2355492
vt 0.09971099 0.265896
vt 0.06936416 0.265896
vt 0.03612717 0.2687861
vt 0.06647399 0.2687861
vt 0.06647399 0.2991329
vt 0.03612717 0.2991329
vt 0.03612717 0.2355492
vt 0.06647399 0.2355492
vt 0.06647399 0.265896
vt 0.03612717 0.265896

# Normal
vn 0 0 -1

# Mesh description
g bosque-2.2_mesh_0001

# Faces
f 1/1/1 2/2/1 3/3/1 4/4/1
f 5/5/1 6/6/1 7/7/1 8/8/1
f 9/9/1 10/10/1 11/11/1 12/12/1
f 13/13/1 14/14/1 15/15/1 16/16/1
f 17/1/1 18/2/1 19/3/1 20/4/1
f 21/17/1 22/18/1 23/19/1 24/20/1
f 25/9/1 26/10/1 27/11/1 28/12/1
f 29/21/1 30/22/1 31/23/1 32/24/1
f 33/1/1 34/2/1 35/3/1 36/4/1
f 37/5/1 38/6/1 39/7/1 40/8/1
f 41/9/1 42/10/1 43/11/1 44/12/1
f 45/13/1 46/14/1 47/15/1 48/16/1
f 49/17/1 50/18/1 51/19/1 52/20/1
f 53/9/1 54/10/1 55/11/1 56/12/1
f 57/21/1 58/22/1 59/23/1 60/24/1
f 61/5/1 62/6/1 63/7/1 64/8/1
f 65/9/1 66/10/1 67/11/1 68/12/1
f 69/13/1 70/14/1 71/15/1 72/16/1
f 73/17/1 74/18/1 75/19/1 76/20/1
f 77/9/1 78/10/1 79/11/1 80/12/1
f 81/21/1 82/22/1 83/23/1 84/24/1
f 85/17/1 86/18/1 87/19/1 88/20/1
f 89/9/1 90/10/1 91/11/1 92/12/1
f 93/21/1 94/22/1 95/23/1 96/24/1
f 97/17/1 98/18/1 99/19/1 100/20/1
f 101/9/1 102/10/1 103/11/1 104/12/1
f 105/21/1 106/22/1 107/23/1 108/24/1
f 109/17/1 110/18/1 111/19/1 112/20/1
f 113/9/1 114/10/1 115/11/1 116/12/1
f 117/21/1 118/22/1 119/23/1 120/24/1
f 121/25/1 122/26/1 123/27/1 124/28/1
f 125/29/1 126/30/1 127/31/1 128/32/1
f 129/17/1 130/18/1 131/19/1 132/20/1
f 133/9/1 134/10/1 135/11/1 136/12/1
f 137/21/1 138/22/1 139/23/1 140/24/1
f 141/17/1 142/18/1 143/19/1 144/20/1
f 145/9/1 146/10/1 147/11/1 148/12/1
f 149/21/1 150/22/1 151/23/1 152/24/1
f 153/29/1 154/30/1 155/31/1 156/32/1
f 157/33/1 158/34/1 159/35/1 160/36/1
f 161/37/1 162/38/1 163/39/1 164/40/1
f 165/41/1 166/42/1 167/43/1 168/44/1
f 169/45/1 170/46/1 171/47/1 172/48/1
f 173/17/1 174/18/1 175/19/1 176/20/1
f 177/9/1 178/10/1 179/11/1 180/12/1
f 181/21/1 182/22/1 183/23/1 184/24/1
f 185/29/1 186/30/1 187/31/1 188/32/1
f 189/29/1 190/30/1 191/31/1 192/32/1
f 193/49/1 194/50/1 195/51/1 196/52/1
f 197/49/1 198/50/1 199/51/1 200/52/1
f 201/49/1 202/50/1 203/51/1 204/52/1
f 205/49/1 206/50/1 207/51/1 208/52/1
f 209/53/1 210/54/1 211/55/1 212/56/1
f 213/57/1 214/58/1 215/59/1 216/60/1
f 217/61/1 218/62/1 219/63/1 220/64/1
f 221/29/1 222/30/1 223/31/1 224/32/1
f 225/53/1 226/54/1 227/55/1 228/56/1
f 229/57/1 230/58/1 231/59/1 232/60/1
f 233/61/1 234/62/1 235/63/1 236/64/1
f 237/53/1 238/54/1 239/55/1 240/56/1
f 241/57/1 242/58/1 243/59/1 244/60/1
f 245/61/1 246/62/1 247/63/1 248/64/1
f 249/65/1 250/66/1 251/67/1 252/68/1
f 253/65/1 254/66/1 255/67/1 256/68/1
f 257/65/1 258/66/1 259/67/1 260/68/1
f 261/65/1 262/66/1 263/67/1 264/68/1
f 265/29/1 266/30/1 267/31/1 268/32/1
f 269/53/1 270/54/1 271/55/1 272/56/1
f 273/57/1 274/58/1 275/59/1 276/60/1
f 277/61/1 278/62/1 279/63/1 280/64/1
f 281/29/1 282/30/1 283/31/1 284/32/1
f 285/53/1 286/54/1 287/55/1 288/56/1
f 289/57/1 290/58/1 291/59/1 292/60/1
f 293/61/1 294/62/1 295/63/1 296/64/1
f 297/29/1 298/30/1 299/31/1 300/32/1
f 301/29/1 302/30/1 303/31/1 304/32/1
f 305/29/1 306/30/1 307/31/1 308/32/1
f 309/29/1 310/30/1 311/31/1 312/32/1
f 313/29/1 314/30/1 315/31/1 316/32/1
f 317/29/1 318/30/1 319/31/1 320/32/1
f 321/29/1 322/30/1 323/31/1 324/32/1
f 325/29/1 326/30/1 327/31/1 328/32/1
f 329/29/1 330/30/1 331/31/1 332/32/1
f 333/29/1 334/30/1 335/31/1 336/32/1
f 337/29/1 338/30/1 339/31/1 340/32/1
f 341/29/1 342/30/1 343/31/1 344/32/1
f 345/69/1 346/70/1 347/71/1 348/72/1
f 349/29/1 350/30/1 351/31/1 352/32/1
f 353/29/1 354/30/1 355/31/1 356/32/1
f 357/29/1 358/30/1 359/31/1 360/32/1
f 361/29/1 362/30/1 363/31/1 364/32/1
f 365/49/1 366/50/1 367/51/1 368/52/1
f 369/49/1 370/50/1 371/51/1 372/52/1
f 373/73/1 374/74/1 375/75/1 376/76/1
f 377/29/1 378/30/1 379/31/1 380/32/1
f 381/73/1 382/74/1 383/75/1 384/76/1
f 385/29/1 386/30/1 387/31/1 388/32/1
f 389/65/1 390/66/1 391/67/1 392/68/1
f 393/65/1 394/66/1 395/67/1 396/68/1
f 397/77/1 398/78/1 399/79/1 400/80/1
f 401/81/1 402/82/1 403/83/1 404/84/1

