# Tiled2Unity generated file. Do not modify by hand.
# Wavefront file for 'bosque-2.2_mesh_0004.obj'

# Vertices (Count = 24)
v -26 -8 0
v -27 -8 0
v -27 -7 0
v -26 -7 0
v -29 -8 0
v -30 -8 0
v -30 -7 0
v -29 -7 0
v -26 -12 0
v -27 -12 0
v -27 -11 0
v -26 -11 0
v -29 -12 0
v -30 -12 0
v -30 -11 0
v -29 -11 0
v -26 -15 0
v -27 -15 0
v -27 -14 0
v -26 -14 0
v -29 -15 0
v -30 -15 0
v -30 -14 0
v -29 -14 0

# Texture cooridinates (Count = 8)
vt 0.7008671 0.1690751
vt 0.7312139 0.1690751
vt 0.7312139 0.1994219
vt 0.7008671 0.1994219
vt 0.7008671 0.1358382
vt 0.7312139 0.1358382
vt 0.7312139 0.166185
vt 0.7008671 0.166185

# Normal
vn 0 0 -1

# Mesh description
g bosque-2.2_mesh_0004

# Faces
f 1/1/1 2/2/1 3/3/1 4/4/1
f 5/1/1 6/2/1 7/3/1 8/4/1
f 9/5/1 10/6/1 11/7/1 12/8/1
f 13/5/1 14/6/1 15/7/1 16/8/1
f 17/1/1 18/2/1 19/3/1 20/4/1
f 21/1/1 22/2/1 23/3/1 24/4/1

