# Tiled2Unity generated file. Do not modify by hand.
# Wavefront file for 'bunker1.3_mesh_0003.obj'

# Vertices (Count = 36)
v -2 -8 0
v -3 -8 0
v -3 -7 0
v -2 -7 0
v -4 -8 0
v -5 -8 0
v -5 -7 0
v -4 -7 0
v -8 -8 0
v -9 -8 0
v -9 -7 0
v -8 -7 0
v -9 -8 0
v -10 -8 0
v -10 -7 0
v -9 -7 0
v -10 -8 0
v -11 -8 0
v -11 -7 0
v -10 -7 0
v -19 -8 0
v -20 -8 0
v -20 -7 0
v -19 -7 0
v -9 -7 0
v -10 -7 0
v -10 -6 0
v -9 -6 0
v -10 -7 0
v -11 -7 0
v -11 -6 0
v -10 -6 0
v -10 -6 0
v -11 -6 0
v -11 -5 0
v -10 -5 0

# Texture cooridinates (Count = 12)
vt 0.4017341 0.767341
vt 0.4320809 0.767341
vt 0.4320809 0.7976879
vt 0.4017341 0.7976879
vt 0.4349711 0.767341
vt 0.4653179 0.767341
vt 0.4653179 0.7976879
vt 0.4349711 0.7976879
vt 0.5014451 0.7008671
vt 0.5317919 0.7008671
vt 0.5317919 0.7312139
vt 0.5014451 0.7312139

# Normal
vn 0 0 -1

# Mesh description
g bunker1.3_mesh_0003

# Faces
f 1/1/1 2/2/1 3/3/1 4/4/1
f 5/1/1 6/2/1 7/3/1 8/4/1
f 9/5/1 10/6/1 11/7/1 12/8/1
f 13/5/1 14/6/1 15/7/1 16/8/1
f 17/5/1 18/6/1 19/7/1 20/8/1
f 21/9/1 22/10/1 23/11/1 24/12/1
f 25/5/1 26/6/1 27/7/1 28/8/1
f 29/5/1 30/6/1 31/7/1 32/8/1
f 33/5/1 34/6/1 35/7/1 36/8/1

