# Tiled2Unity generated file. Do not modify by hand.
# Wavefront file for 'bunk1.3_mesh_0004.obj'

# Vertices (Count = 48)
v -9 -11 0
v -10 -11 0
v -10 -10 0
v -9 -10 0
v -10 -11 0
v -11 -11 0
v -11 -10 0
v -10 -10 0
v -11 -11 0
v -12 -11 0
v -12 -10 0
v -11 -10 0
v -10 -10 0
v -11 -10 0
v -11 -9 0
v -10 -9 0
v -10 -9 0
v -11 -9 0
v -11 -8 0
v -10 -8 0
v -10 -8 0
v -11 -8 0
v -11 -7 0
v -10 -7 0
v -10 -7 0
v -11 -7 0
v -11 -6 0
v -10 -6 0
v -10 -6 0
v -11 -6 0
v -11 -5 0
v -10 -5 0
v -10 -5 0
v -11 -5 0
v -11 -4 0
v -10 -4 0
v -10 -4 0
v -11 -4 0
v -11 -3 0
v -10 -3 0
v -10 -3 0
v -11 -3 0
v -11 -2 0
v -10 -2 0
v -10 -2 0
v -11 -2 0
v -11 -1 0
v -10 -1 0

# Texture cooridinates (Count = 8)
vt 0.2687861 0.6343931
vt 0.2991329 0.6343931
vt 0.2991329 0.6647398
vt 0.2687861 0.6647398
vt 0.4349711 0.900289
vt 0.4653179 0.900289
vt 0.4653179 0.9306358
vt 0.4349711 0.9306358

# Normal
vn 0 0 -1

# Mesh description
g bunk1.3_mesh_0004

# Faces
f 1/1/1 2/2/1 3/3/1 4/4/1
f 5/1/1 6/2/1 7/3/1 8/4/1
f 9/1/1 10/2/1 11/3/1 12/4/1
f 13/5/1 14/6/1 15/7/1 16/8/1
f 17/5/1 18/6/1 19/7/1 20/8/1
f 21/5/1 22/6/1 23/7/1 24/8/1
f 25/5/1 26/6/1 27/7/1 28/8/1
f 29/5/1 30/6/1 31/7/1 32/8/1
f 33/5/1 34/6/1 35/7/1 36/8/1
f 37/5/1 38/6/1 39/7/1 40/8/1
f 41/5/1 42/6/1 43/7/1 44/8/1
f 45/5/1 46/6/1 47/7/1 48/8/1

