# Tiled2Unity generated file. Do not modify by hand.
# Wavefront file for 'bunk1.3_mesh_0001.obj'

# Vertices (Count = 260)
v 0 -15 0
v -1 -15 0
v -1 -14 0
v 0 -14 0
v -1 -15 0
v -2 -15 0
v -2 -14 0
v -1 -14 0
v -2 -15 0
v -3 -15 0
v -3 -14 0
v -2 -14 0
v -3 -15 0
v -4 -15 0
v -4 -14 0
v -3 -14 0
v -4 -15 0
v -5 -15 0
v -5 -14 0
v -4 -14 0
v -5 -15 0
v -6 -15 0
v -6 -14 0
v -5 -14 0
v -6 -15 0
v -7 -15 0
v -7 -14 0
v -6 -14 0
v -24 -15 0
v -25 -15 0
v -25 -14 0
v -24 -14 0
v -25 -15 0
v -26 -15 0
v -26 -14 0
v -25 -14 0
v -26 -15 0
v -27 -15 0
v -27 -14 0
v -26 -14 0
v -27 -15 0
v -28 -15 0
v -28 -14 0
v -27 -14 0
v -28 -15 0
v -29 -15 0
v -29 -14 0
v -28 -14 0
v -29 -15 0
v -30 -15 0
v -30 -14 0
v -29 -14 0
v 0 -14 0
v -1 -14 0
v -1 -13 0
v 0 -13 0
v -1 -14 0
v -2 -14 0
v -2 -13 0
v -1 -13 0
v -2 -14 0
v -3 -14 0
v -3 -13 0
v -2 -13 0
v -3 -14 0
v -4 -14 0
v -4 -13 0
v -3 -13 0
v -4 -14 0
v -5 -14 0
v -5 -13 0
v -4 -13 0
v -5 -14 0
v -6 -14 0
v -6 -13 0
v -5 -13 0
v -6 -14 0
v -7 -14 0
v -7 -13 0
v -6 -13 0
v -24 -14 0
v -25 -14 0
v -25 -13 0
v -24 -13 0
v -25 -14 0
v -26 -14 0
v -26 -13 0
v -25 -13 0
v -26 -14 0
v -27 -14 0
v -27 -13 0
v -26 -13 0
v -27 -14 0
v -28 -14 0
v -28 -13 0
v -27 -13 0
v -28 -14 0
v -29 -14 0
v -29 -13 0
v -28 -13 0
v -29 -14 0
v -30 -14 0
v -30 -13 0
v -29 -13 0
v 0 -13 0
v -1 -13 0
v -1 -12 0
v 0 -12 0
v -1 -13 0
v -2 -13 0
v -2 -12 0
v -1 -12 0
v -2 -13 0
v -3 -13 0
v -3 -12 0
v -2 -12 0
v -3 -13 0
v -4 -13 0
v -4 -12 0
v -3 -12 0
v -4 -13 0
v -5 -13 0
v -5 -12 0
v -4 -12 0
v -5 -13 0
v -6 -13 0
v -6 -12 0
v -5 -12 0
v -6 -13 0
v -7 -13 0
v -7 -12 0
v -6 -12 0
v -24 -13 0
v -25 -13 0
v -25 -12 0
v -24 -12 0
v -25 -13 0
v -26 -13 0
v -26 -12 0
v -25 -12 0
v -26 -13 0
v -27 -13 0
v -27 -12 0
v -26 -12 0
v -27 -13 0
v -28 -13 0
v -28 -12 0
v -27 -12 0
v -28 -13 0
v -29 -13 0
v -29 -12 0
v -28 -12 0
v -29 -13 0
v -30 -13 0
v -30 -12 0
v -29 -12 0
v 0 -12 0
v -1 -12 0
v -1 -11 0
v 0 -11 0
v -1 -12 0
v -2 -12 0
v -2 -11 0
v -1 -11 0
v -2 -12 0
v -3 -12 0
v -3 -11 0
v -2 -11 0
v -3 -12 0
v -4 -12 0
v -4 -11 0
v -3 -11 0
v -4 -12 0
v -5 -12 0
v -5 -11 0
v -4 -11 0
v -5 -12 0
v -6 -12 0
v -6 -11 0
v -5 -11 0
v -6 -12 0
v -7 -12 0
v -7 -11 0
v -6 -11 0
v -24 -12 0
v -25 -12 0
v -25 -11 0
v -24 -11 0
v -25 -12 0
v -26 -12 0
v -26 -11 0
v -25 -11 0
v -26 -12 0
v -27 -12 0
v -27 -11 0
v -26 -11 0
v -27 -12 0
v -28 -12 0
v -28 -11 0
v -27 -11 0
v -28 -12 0
v -29 -12 0
v -29 -11 0
v -28 -11 0
v -29 -12 0
v -30 -12 0
v -30 -11 0
v -29 -11 0
v 0 -11 0
v -1 -11 0
v -1 -10 0
v 0 -10 0
v -1 -11 0
v -2 -11 0
v -2 -10 0
v -1 -10 0
v -2 -11 0
v -3 -11 0
v -3 -10 0
v -2 -10 0
v -3 -11 0
v -4 -11 0
v -4 -10 0
v -3 -10 0
v -4 -11 0
v -5 -11 0
v -5 -10 0
v -4 -10 0
v -5 -11 0
v -6 -11 0
v -6 -10 0
v -5 -10 0
v -6 -11 0
v -7 -11 0
v -7 -10 0
v -6 -10 0
v -24 -11 0
v -25 -11 0
v -25 -10 0
v -24 -10 0
v -25 -11 0
v -26 -11 0
v -26 -10 0
v -25 -10 0
v -26 -11 0
v -27 -11 0
v -27 -10 0
v -26 -10 0
v -27 -11 0
v -28 -11 0
v -28 -10 0
v -27 -10 0
v -28 -11 0
v -29 -11 0
v -29 -10 0
v -28 -10 0
v -29 -11 0
v -30 -11 0
v -30 -10 0
v -29 -10 0

# Texture cooridinates (Count = 28)
vt 0 0.1515151
vt 0.1627907 0.1515151
vt 0.1627907 0.3636364
vt 0 0.3636364
vt 0.3255814 0.1515151
vt 0.3255814 0.3636364
vt 0.4883721 0.1515151
vt 0.4883721 0.3636364
vt 0.6511628 0.1515151
vt 0.6511628 0.3636364
vt 0.8139535 0.1515151
vt 0.8139535 0.3636364
vt 0.9767442 0.1515151
vt 0.9767442 0.3636364
vt 0.1627907 0.5757576
vt 0 0.5757576
vt 0.3255814 0.5757576
vt 0.4883721 0.5757576
vt 0.6511628 0.5757576
vt 0.8139535 0.5757576
vt 0.9767442 0.5757576
vt 0.1627907 0.7878788
vt 0 0.7878788
vt 0.3255814 0.7878788
vt 0.4883721 0.7878788
vt 0.6511628 0.7878788
vt 0.8139535 0.7878788
vt 0.9767442 0.7878788

# Normal
vn 0 0 -1

# Mesh description
g bunk1.3_mesh_0001

# Faces
f 1/1/1 2/2/1 3/3/1 4/4/1
f 5/2/1 6/5/1 7/6/1 8/3/1
f 9/5/1 10/7/1 11/8/1 12/6/1
f 13/7/1 14/9/1 15/10/1 16/8/1
f 17/5/1 18/7/1 19/8/1 20/6/1
f 21/5/1 22/7/1 23/8/1 24/6/1
f 25/7/1 26/9/1 27/10/1 28/8/1
f 29/5/1 30/7/1 31/8/1 32/6/1
f 33/7/1 34/9/1 35/10/1 36/8/1
f 37/5/1 38/7/1 39/8/1 40/6/1
f 41/7/1 42/9/1 43/10/1 44/8/1
f 45/9/1 46/11/1 47/12/1 48/10/1
f 49/11/1 50/13/1 51/14/1 52/12/1
f 53/1/1 54/2/1 55/3/1 56/4/1
f 57/2/1 58/5/1 59/6/1 60/3/1
f 61/5/1 62/7/1 63/8/1 64/6/1
f 65/7/1 66/9/1 67/10/1 68/8/1
f 69/5/1 70/7/1 71/8/1 72/6/1
f 73/5/1 74/7/1 75/8/1 76/6/1
f 77/7/1 78/9/1 79/10/1 80/8/1
f 81/5/1 82/7/1 83/8/1 84/6/1
f 85/7/1 86/9/1 87/10/1 88/8/1
f 89/5/1 90/7/1 91/8/1 92/6/1
f 93/7/1 94/9/1 95/10/1 96/8/1
f 97/9/1 98/11/1 99/12/1 100/10/1
f 101/11/1 102/13/1 103/14/1 104/12/1
f 105/1/1 106/2/1 107/3/1 108/4/1
f 109/2/1 110/5/1 111/6/1 112/3/1
f 113/5/1 114/7/1 115/8/1 116/6/1
f 117/7/1 118/9/1 119/10/1 120/8/1
f 121/5/1 122/7/1 123/8/1 124/6/1
f 125/5/1 126/7/1 127/8/1 128/6/1
f 129/7/1 130/9/1 131/10/1 132/8/1
f 133/5/1 134/7/1 135/8/1 136/6/1
f 137/7/1 138/9/1 139/10/1 140/8/1
f 141/5/1 142/7/1 143/8/1 144/6/1
f 145/7/1 146/9/1 147/10/1 148/8/1
f 149/9/1 150/11/1 151/12/1 152/10/1
f 153/11/1 154/13/1 155/14/1 156/12/1
f 157/4/1 158/3/1 159/15/1 160/16/1
f 161/3/1 162/6/1 163/17/1 164/15/1
f 165/6/1 166/8/1 167/18/1 168/17/1
f 169/8/1 170/10/1 171/19/1 172/18/1
f 173/6/1 174/8/1 175/18/1 176/17/1
f 177/6/1 178/8/1 179/18/1 180/17/1
f 181/8/1 182/10/1 183/19/1 184/18/1
f 185/6/1 186/8/1 187/18/1 188/17/1
f 189/8/1 190/10/1 191/19/1 192/18/1
f 193/6/1 194/8/1 195/18/1 196/17/1
f 197/8/1 198/10/1 199/19/1 200/18/1
f 201/10/1 202/12/1 203/20/1 204/19/1
f 205/12/1 206/14/1 207/21/1 208/20/1
f 209/16/1 210/15/1 211/22/1 212/23/1
f 213/15/1 214/17/1 215/24/1 216/22/1
f 217/17/1 218/18/1 219/25/1 220/24/1
f 221/18/1 222/19/1 223/26/1 224/25/1
f 225/17/1 226/18/1 227/25/1 228/24/1
f 229/17/1 230/18/1 231/25/1 232/24/1
f 233/18/1 234/19/1 235/26/1 236/25/1
f 237/17/1 238/18/1 239/25/1 240/24/1
f 241/18/1 242/19/1 243/26/1 244/25/1
f 245/17/1 246/18/1 247/25/1 248/24/1
f 249/18/1 250/19/1 251/26/1 252/25/1
f 253/19/1 254/20/1 255/27/1 256/26/1
f 257/20/1 258/21/1 259/28/1 260/27/1

