# Tiled2Unity generated file. Do not modify by hand.
# Wavefront file for 'bosque-2.4_mesh_0004.obj'

# Vertices (Count = 328)
v -28 -4 0
v -29 -4 0
v -29 -3 0
v -28 -3 0
v -29 -4 0
v -30 -4 0
v -30 -3 0
v -29 -3 0
v -8 -5 0
v -9 -5 0
v -9 -4 0
v -8 -4 0
v -28 -5 0
v -29 -5 0
v -29 -4 0
v -28 -4 0
v -29 -5 0
v -30 -5 0
v -30 -4 0
v -29 -4 0
v -25 -6 0
v -26 -6 0
v -26 -5 0
v -25 -5 0
v -26 -6 0
v -27 -6 0
v -27 -5 0
v -26 -5 0
v -27 -6 0
v -28 -6 0
v -28 -5 0
v -27 -5 0
v -28 -6 0
v -29 -6 0
v -29 -5 0
v -28 -5 0
v -29 -6 0
v -30 -6 0
v -30 -5 0
v -29 -5 0
v -25 -7 0
v -26 -7 0
v -26 -6 0
v -25 -6 0
v -26 -7 0
v -27 -7 0
v -27 -6 0
v -26 -6 0
v -27 -7 0
v -28 -7 0
v -28 -6 0
v -27 -6 0
v -28 -7 0
v -29 -7 0
v -29 -6 0
v -28 -6 0
v -29 -7 0
v -30 -7 0
v -30 -6 0
v -29 -6 0
v -25 -8 0
v -26 -8 0
v -26 -7 0
v -25 -7 0
v -26 -8 0
v -27 -8 0
v -27 -7 0
v -26 -7 0
v -27 -8 0
v -28 -8 0
v -28 -7 0
v -27 -7 0
v -28 -8 0
v -29 -8 0
v -29 -7 0
v -28 -7 0
v -29 -8 0
v -30 -8 0
v -30 -7 0
v -29 -7 0
v -25 -9 0
v -26 -9 0
v -26 -8 0
v -25 -8 0
v -26 -9 0
v -27 -9 0
v -27 -8 0
v -26 -8 0
v -27 -9 0
v -28 -9 0
v -28 -8 0
v -27 -8 0
v -28 -9 0
v -29 -9 0
v -29 -8 0
v -28 -8 0
v -29 -9 0
v -30 -9 0
v -30 -8 0
v -29 -8 0
v -25 -10 0
v -26 -10 0
v -26 -9 0
v -25 -9 0
v -26 -10 0
v -27 -10 0
v -27 -9 0
v -26 -9 0
v -27 -10 0
v -28 -10 0
v -28 -9 0
v -27 -9 0
v -28 -10 0
v -29 -10 0
v -29 -9 0
v -28 -9 0
v -29 -10 0
v -30 -10 0
v -30 -9 0
v -29 -9 0
v -25 -11 0
v -26 -11 0
v -26 -10 0
v -25 -10 0
v -26 -11 0
v -27 -11 0
v -27 -10 0
v -26 -10 0
v -27 -11 0
v -28 -11 0
v -28 -10 0
v -27 -10 0
v -28 -11 0
v -29 -11 0
v -29 -10 0
v -28 -10 0
v -29 -11 0
v -30 -11 0
v -30 -10 0
v -29 -10 0
v -25 -12 0
v -26 -12 0
v -26 -11 0
v -25 -11 0
v -26 -12 0
v -27 -12 0
v -27 -11 0
v -26 -11 0
v -27 -12 0
v -28 -12 0
v -28 -11 0
v -27 -11 0
v -28 -12 0
v -29 -12 0
v -29 -11 0
v -28 -11 0
v -29 -12 0
v -30 -12 0
v -30 -11 0
v -29 -11 0
v -4 -13 0
v -5 -13 0
v -5 -12 0
v -4 -12 0
v -13 -13 0
v -14 -13 0
v -14 -12 0
v -13 -12 0
v -25 -13 0
v -26 -13 0
v -26 -12 0
v -25 -12 0
v -26 -13 0
v -27 -13 0
v -27 -12 0
v -26 -12 0
v -27 -13 0
v -28 -13 0
v -28 -12 0
v -27 -12 0
v -28 -13 0
v -29 -13 0
v -29 -12 0
v -28 -12 0
v -29 -13 0
v -30 -13 0
v -30 -12 0
v -29 -12 0
v -25 -14 0
v -26 -14 0
v -26 -13 0
v -25 -13 0
v -26 -14 0
v -27 -14 0
v -27 -13 0
v -26 -13 0
v -27 -14 0
v -28 -14 0
v -28 -13 0
v -27 -13 0
v -28 -14 0
v -29 -14 0
v -29 -13 0
v -28 -13 0
v -29 -14 0
v -30 -14 0
v -30 -13 0
v -29 -13 0
v 0 -15 0
v -1 -15 0
v -1 -14 0
v 0 -14 0
v -1 -15 0
v -2 -15 0
v -2 -14 0
v -1 -14 0
v -2 -15 0
v -3 -15 0
v -3 -14 0
v -2 -14 0
v -3 -15 0
v -4 -15 0
v -4 -14 0
v -3 -14 0
v -4 -15 0
v -5 -15 0
v -5 -14 0
v -4 -14 0
v -5 -15 0
v -6 -15 0
v -6 -14 0
v -5 -14 0
v -6 -15 0
v -7 -15 0
v -7 -14 0
v -6 -14 0
v -7 -15 0
v -8 -15 0
v -8 -14 0
v -7 -14 0
v -8 -15 0
v -9 -15 0
v -9 -14 0
v -8 -14 0
v -9 -15 0
v -10 -15 0
v -10 -14 0
v -9 -14 0
v -10 -15 0
v -11 -15 0
v -11 -14 0
v -10 -14 0
v -11 -15 0
v -12 -15 0
v -12 -14 0
v -11 -14 0
v -12 -15 0
v -13 -15 0
v -13 -14 0
v -12 -14 0
v -13 -15 0
v -14 -15 0
v -14 -14 0
v -13 -14 0
v -14 -15 0
v -15 -15 0
v -15 -14 0
v -14 -14 0
v -15 -15 0
v -16 -15 0
v -16 -14 0
v -15 -14 0
v -16 -15 0
v -17 -15 0
v -17 -14 0
v -16 -14 0
v -17 -15 0
v -18 -15 0
v -18 -14 0
v -17 -14 0
v -18 -15 0
v -19 -15 0
v -19 -14 0
v -18 -14 0
v -19 -15 0
v -20 -15 0
v -20 -14 0
v -19 -14 0
v -20 -15 0
v -21 -15 0
v -21 -14 0
v -20 -14 0
v -21 -15 0
v -22 -15 0
v -22 -14 0
v -21 -14 0
v -22 -15 0
v -23 -15 0
v -23 -14 0
v -22 -14 0
v -23 -15 0
v -24 -15 0
v -24 -14 0
v -23 -14 0
v -24 -15 0
v -25 -15 0
v -25 -14 0
v -24 -14 0
v -25 -15 0
v -26 -15 0
v -26 -14 0
v -25 -14 0
v -26 -15 0
v -27 -15 0
v -27 -14 0
v -26 -14 0
v -27 -15 0
v -28 -15 0
v -28 -14 0
v -27 -14 0
v -28 -15 0
v -29 -15 0
v -29 -14 0
v -28 -14 0
v -29 -15 0
v -30 -15 0
v -30 -14 0
v -29 -14 0

# Texture cooridinates (Count = 16)
vt 0.06936416 0.833815
vt 0.09971099 0.833815
vt 0.09971099 0.8641618
vt 0.06936416 0.8641618
vt 0.3684971 0.933526
vt 0.3988439 0.933526
vt 0.3988439 0.9638728
vt 0.3684971 0.9638728
vt 0.06936416 0.800578
vt 0.09971099 0.800578
vt 0.09971099 0.8309249
vt 0.06936416 0.8309249
vt 0.3352601 0.966763
vt 0.3656069 0.966763
vt 0.3656069 0.9971098
vt 0.3352601 0.9971098

# Normal
vn 0 0 -1

# Mesh description
g bosque-2.4_mesh_0004

# Faces
f 1/1/1 2/2/1 3/3/1 4/4/1
f 5/1/1 6/2/1 7/3/1 8/4/1
f 9/5/1 10/6/1 11/7/1 12/8/1
f 13/9/1 14/10/1 15/11/1 16/12/1
f 17/9/1 18/10/1 19/11/1 20/12/1
f 21/1/1 22/2/1 23/3/1 24/4/1
f 25/1/1 26/2/1 27/3/1 28/4/1
f 29/1/1 30/2/1 31/3/1 32/4/1
f 33/9/1 34/10/1 35/11/1 36/12/1
f 37/9/1 38/10/1 39/11/1 40/12/1
f 41/9/1 42/10/1 43/11/1 44/12/1
f 45/9/1 46/10/1 47/11/1 48/12/1
f 49/9/1 50/10/1 51/11/1 52/12/1
f 53/1/1 54/2/1 55/3/1 56/4/1
f 57/1/1 58/2/1 59/3/1 60/4/1
f 61/9/1 62/10/1 63/11/1 64/12/1
f 65/9/1 66/10/1 67/11/1 68/12/1
f 69/9/1 70/10/1 71/11/1 72/12/1
f 73/9/1 74/10/1 75/11/1 76/12/1
f 77/9/1 78/10/1 79/11/1 80/12/1
f 81/1/1 82/2/1 83/3/1 84/4/1
f 85/1/1 86/2/1 87/3/1 88/4/1
f 89/9/1 90/10/1 91/11/1 92/12/1
f 93/9/1 94/10/1 95/11/1 96/12/1
f 97/9/1 98/10/1 99/11/1 100/12/1
f 101/9/1 102/10/1 103/11/1 104/12/1
f 105/9/1 106/10/1 107/11/1 108/12/1
f 109/9/1 110/10/1 111/11/1 112/12/1
f 113/9/1 114/10/1 115/11/1 116/12/1
f 117/9/1 118/10/1 119/11/1 120/12/1
f 121/9/1 122/10/1 123/11/1 124/12/1
f 125/9/1 126/10/1 127/11/1 128/12/1
f 129/9/1 130/10/1 131/11/1 132/12/1
f 133/1/1 134/2/1 135/3/1 136/4/1
f 137/1/1 138/2/1 139/3/1 140/4/1
f 141/9/1 142/10/1 143/11/1 144/12/1
f 145/9/1 146/10/1 147/11/1 148/12/1
f 149/9/1 150/10/1 151/11/1 152/12/1
f 153/9/1 154/10/1 155/11/1 156/12/1
f 157/9/1 158/10/1 159/11/1 160/12/1
f 161/5/1 162/6/1 163/7/1 164/8/1
f 165/5/1 166/6/1 167/7/1 168/8/1
f 169/1/1 170/2/1 171/3/1 172/4/1
f 173/1/1 174/2/1 175/3/1 176/4/1
f 177/9/1 178/10/1 179/11/1 180/12/1
f 181/9/1 182/10/1 183/11/1 184/12/1
f 185/9/1 186/10/1 187/11/1 188/12/1
f 189/9/1 190/10/1 191/11/1 192/12/1
f 193/9/1 194/10/1 195/11/1 196/12/1
f 197/9/1 198/10/1 199/11/1 200/12/1
f 201/9/1 202/10/1 203/11/1 204/12/1
f 205/9/1 206/10/1 207/11/1 208/12/1
f 209/1/1 210/2/1 211/3/1 212/4/1
f 213/1/1 214/2/1 215/3/1 216/4/1
f 217/1/1 218/2/1 219/3/1 220/4/1
f 221/13/1 222/14/1 223/15/1 224/16/1
f 225/13/1 226/14/1 227/15/1 228/16/1
f 229/13/1 230/14/1 231/15/1 232/16/1
f 233/13/1 234/14/1 235/15/1 236/16/1
f 237/13/1 238/14/1 239/15/1 240/16/1
f 241/13/1 242/14/1 243/15/1 244/16/1
f 245/13/1 246/14/1 247/15/1 248/16/1
f 249/13/1 250/14/1 251/15/1 252/16/1
f 253/13/1 254/14/1 255/15/1 256/16/1
f 257/13/1 258/14/1 259/15/1 260/16/1
f 261/13/1 262/14/1 263/15/1 264/16/1
f 265/13/1 266/14/1 267/15/1 268/16/1
f 269/13/1 270/14/1 271/15/1 272/16/1
f 273/13/1 274/14/1 275/15/1 276/16/1
f 277/13/1 278/14/1 279/15/1 280/16/1
f 281/13/1 282/14/1 283/15/1 284/16/1
f 285/13/1 286/14/1 287/15/1 288/16/1
f 289/13/1 290/14/1 291/15/1 292/16/1
f 293/13/1 294/14/1 295/15/1 296/16/1
f 297/13/1 298/14/1 299/15/1 300/16/1
f 301/13/1 302/14/1 303/15/1 304/16/1
f 305/13/1 306/14/1 307/15/1 308/16/1
f 309/9/1 310/10/1 311/11/1 312/12/1
f 313/9/1 314/10/1 315/11/1 316/12/1
f 317/9/1 318/10/1 319/11/1 320/12/1
f 321/9/1 322/10/1 323/11/1 324/12/1
f 325/9/1 326/10/1 327/11/1 328/12/1

