# Tiled2Unity generated file. Do not modify by hand.
# Wavefront file for 'bosque-2,5_mesh_0006.obj'

# Vertices (Count = 256)
v -22 -10 0
v -23 -10 0
v -23 -9 0
v -22 -9 0
v -23 -10 0
v -24 -10 0
v -24 -9 0
v -23 -9 0
v -24 -10 0
v -25 -10 0
v -25 -9 0
v -24 -9 0
v -25 -10 0
v -26 -10 0
v -26 -9 0
v -25 -9 0
v -26 -10 0
v -27 -10 0
v -27 -9 0
v -26 -9 0
v -27 -10 0
v -28 -10 0
v -28 -9 0
v -27 -9 0
v -28 -10 0
v -29 -10 0
v -29 -9 0
v -28 -9 0
v -29 -10 0
v -30 -10 0
v -30 -9 0
v -29 -9 0
v -3 -11 0
v -4 -11 0
v -4 -10 0
v -3 -10 0
v -9 -11 0
v -10 -11 0
v -10 -10 0
v -9 -10 0
v -21 -11 0
v -22 -11 0
v -22 -10 0
v -21 -10 0
v -22 -11 0
v -23 -11 0
v -23 -10 0
v -22 -10 0
v -23 -11 0
v -24 -11 0
v -24 -10 0
v -23 -10 0
v -24 -11 0
v -25 -11 0
v -25 -10 0
v -24 -10 0
v -25 -11 0
v -26 -11 0
v -26 -10 0
v -25 -10 0
v -26 -11 0
v -27 -11 0
v -27 -10 0
v -26 -10 0
v -27 -11 0
v -28 -11 0
v -28 -10 0
v -27 -10 0
v -28 -11 0
v -29 -11 0
v -29 -10 0
v -28 -10 0
v -29 -11 0
v -30 -11 0
v -30 -10 0
v -29 -10 0
v -9 -12 0
v -10 -12 0
v -10 -11 0
v -9 -11 0
v -10 -12 0
v -11 -12 0
v -11 -11 0
v -10 -11 0
v -11 -12 0
v -12 -12 0
v -12 -11 0
v -11 -11 0
v -12 -12 0
v -13 -12 0
v -13 -11 0
v -12 -11 0
v -13 -12 0
v -14 -12 0
v -14 -11 0
v -13 -11 0
v -14 -12 0
v -15 -12 0
v -15 -11 0
v -14 -11 0
v -15 -12 0
v -16 -12 0
v -16 -11 0
v -15 -11 0
v -16 -12 0
v -17 -12 0
v -17 -11 0
v -16 -11 0
v -17 -12 0
v -18 -12 0
v -18 -11 0
v -17 -11 0
v -18 -12 0
v -19 -12 0
v -19 -11 0
v -18 -11 0
v -19 -12 0
v -20 -12 0
v -20 -11 0
v -19 -11 0
v -20 -12 0
v -21 -12 0
v -21 -11 0
v -20 -11 0
v -21 -12 0
v -22 -12 0
v -22 -11 0
v -21 -11 0
v -22 -12 0
v -23 -12 0
v -23 -11 0
v -22 -11 0
v -23 -12 0
v -24 -12 0
v -24 -11 0
v -23 -11 0
v -24 -12 0
v -25 -12 0
v -25 -11 0
v -24 -11 0
v -25 -12 0
v -26 -12 0
v -26 -11 0
v -25 -11 0
v -26 -12 0
v -27 -12 0
v -27 -11 0
v -26 -11 0
v -27 -12 0
v -28 -12 0
v -28 -11 0
v -27 -11 0
v -28 -12 0
v -29 -12 0
v -29 -11 0
v -28 -11 0
v -29 -12 0
v -30 -12 0
v -30 -11 0
v -29 -11 0
v -22 -13 0
v -23 -13 0
v -23 -12 0
v -22 -12 0
v -23 -13 0
v -24 -13 0
v -24 -12 0
v -23 -12 0
v -24 -13 0
v -25 -13 0
v -25 -12 0
v -24 -12 0
v -25 -13 0
v -26 -13 0
v -26 -12 0
v -25 -12 0
v -26 -13 0
v -27 -13 0
v -27 -12 0
v -26 -12 0
v -27 -13 0
v -28 -13 0
v -28 -12 0
v -27 -12 0
v -28 -13 0
v -29 -13 0
v -29 -12 0
v -28 -12 0
v -29 -13 0
v -30 -13 0
v -30 -12 0
v -29 -12 0
v -22 -14 0
v -23 -14 0
v -23 -13 0
v -22 -13 0
v -23 -14 0
v -24 -14 0
v -24 -13 0
v -23 -13 0
v -24 -14 0
v -25 -14 0
v -25 -13 0
v -24 -13 0
v -25 -14 0
v -26 -14 0
v -26 -13 0
v -25 -13 0
v -26 -14 0
v -27 -14 0
v -27 -13 0
v -26 -13 0
v -27 -14 0
v -28 -14 0
v -28 -13 0
v -27 -13 0
v -28 -14 0
v -29 -14 0
v -29 -13 0
v -28 -13 0
v -29 -14 0
v -30 -14 0
v -30 -13 0
v -29 -13 0
v -22 -15 0
v -23 -15 0
v -23 -14 0
v -22 -14 0
v -23 -15 0
v -24 -15 0
v -24 -14 0
v -23 -14 0
v -24 -15 0
v -25 -15 0
v -25 -14 0
v -24 -14 0
v -25 -15 0
v -26 -15 0
v -26 -14 0
v -25 -14 0
v -26 -15 0
v -27 -15 0
v -27 -14 0
v -26 -14 0
v -27 -15 0
v -28 -15 0
v -28 -14 0
v -27 -14 0
v -28 -15 0
v -29 -15 0
v -29 -14 0
v -28 -14 0
v -29 -15 0
v -30 -15 0
v -30 -14 0
v -29 -14 0

# Texture cooridinates (Count = 16)
vt 0.4017341 0.734104
vt 0.4320809 0.734104
vt 0.4320809 0.7644508
vt 0.4017341 0.7644508
vt 0.2687861 0.00289017
vt 0.2991329 0.00289017
vt 0.2991329 0.03323698
vt 0.2687861 0.03323698
vt 0.3684971 0.933526
vt 0.3988439 0.933526
vt 0.3988439 0.9638728
vt 0.3684971 0.9638728
vt 0.4349711 0.933526
vt 0.4653179 0.933526
vt 0.4653179 0.9638728
vt 0.4349711 0.9638728

# Normal
vn 0 0 -1

# Mesh description
g bosque-2,5_mesh_0006

# Faces
f 1/1/1 2/2/1 3/3/1 4/4/1
f 5/1/1 6/2/1 7/3/1 8/4/1
f 9/1/1 10/2/1 11/3/1 12/4/1
f 13/1/1 14/2/1 15/3/1 16/4/1
f 17/1/1 18/2/1 19/3/1 20/4/1
f 21/1/1 22/2/1 23/3/1 24/4/1
f 25/1/1 26/2/1 27/3/1 28/4/1
f 29/1/1 30/2/1 31/3/1 32/4/1
f 33/5/1 34/6/1 35/7/1 36/8/1
f 37/9/1 38/10/1 39/11/1 40/12/1
f 41/9/1 42/10/1 43/11/1 44/12/1
f 45/1/1 46/2/1 47/3/1 48/4/1
f 49/1/1 50/2/1 51/3/1 52/4/1
f 53/1/1 54/2/1 55/3/1 56/4/1
f 57/1/1 58/2/1 59/3/1 60/4/1
f 61/1/1 62/2/1 63/3/1 64/4/1
f 65/1/1 66/2/1 67/3/1 68/4/1
f 69/1/1 70/2/1 71/3/1 72/4/1
f 73/1/1 74/2/1 75/3/1 76/4/1
f 77/13/1 78/14/1 79/15/1 80/16/1
f 81/13/1 82/14/1 83/15/1 84/16/1
f 85/13/1 86/14/1 87/15/1 88/16/1
f 89/13/1 90/14/1 91/15/1 92/16/1
f 93/13/1 94/14/1 95/15/1 96/16/1
f 97/13/1 98/14/1 99/15/1 100/16/1
f 101/13/1 102/14/1 103/15/1 104/16/1
f 105/13/1 106/14/1 107/15/1 108/16/1
f 109/13/1 110/14/1 111/15/1 112/16/1
f 113/13/1 114/14/1 115/15/1 116/16/1
f 117/13/1 118/14/1 119/15/1 120/16/1
f 121/13/1 122/14/1 123/15/1 124/16/1
f 125/13/1 126/14/1 127/15/1 128/16/1
f 129/1/1 130/2/1 131/3/1 132/4/1
f 133/1/1 134/2/1 135/3/1 136/4/1
f 137/1/1 138/2/1 139/3/1 140/4/1
f 141/1/1 142/2/1 143/3/1 144/4/1
f 145/1/1 146/2/1 147/3/1 148/4/1
f 149/1/1 150/2/1 151/3/1 152/4/1
f 153/1/1 154/2/1 155/3/1 156/4/1
f 157/1/1 158/2/1 159/3/1 160/4/1
f 161/1/1 162/2/1 163/3/1 164/4/1
f 165/1/1 166/2/1 167/3/1 168/4/1
f 169/1/1 170/2/1 171/3/1 172/4/1
f 173/1/1 174/2/1 175/3/1 176/4/1
f 177/1/1 178/2/1 179/3/1 180/4/1
f 181/1/1 182/2/1 183/3/1 184/4/1
f 185/1/1 186/2/1 187/3/1 188/4/1
f 189/1/1 190/2/1 191/3/1 192/4/1
f 193/1/1 194/2/1 195/3/1 196/4/1
f 197/1/1 198/2/1 199/3/1 200/4/1
f 201/1/1 202/2/1 203/3/1 204/4/1
f 205/1/1 206/2/1 207/3/1 208/4/1
f 209/1/1 210/2/1 211/3/1 212/4/1
f 213/1/1 214/2/1 215/3/1 216/4/1
f 217/1/1 218/2/1 219/3/1 220/4/1
f 221/1/1 222/2/1 223/3/1 224/4/1
f 225/1/1 226/2/1 227/3/1 228/4/1
f 229/1/1 230/2/1 231/3/1 232/4/1
f 233/1/1 234/2/1 235/3/1 236/4/1
f 237/1/1 238/2/1 239/3/1 240/4/1
f 241/1/1 242/2/1 243/3/1 244/4/1
f 245/1/1 246/2/1 247/3/1 248/4/1
f 249/1/1 250/2/1 251/3/1 252/4/1
f 253/1/1 254/2/1 255/3/1 256/4/1

