# Tiled2Unity generated file. Do not modify by hand.
# Wavefront file for 'bunker1.4_mesh_0003.obj'

# Vertices (Count = 120)
v -19 -8 0
v -20 -8 0
v -20 -7 0
v -19 -7 0
v -15 -7 0
v -16 -7 0
v -16 -6 0
v -15 -6 0
v -15 -6 0
v -16 -6 0
v -16 -5 0
v -15 -5 0
v -15 -5 0
v -16 -5 0
v -16 -4 0
v -15 -4 0
v -2 -4 0
v -3 -4 0
v -3 -3 0
v -2 -3 0
v -15 -4 0
v -16 -4 0
v -16 -3 0
v -15 -3 0
v -2 -3 0
v -3 -3 0
v -3 -2 0
v -2 -2 0
v -15 -3 0
v -16 -3 0
v -16 -2 0
v -15 -2 0
v 0 -2 0
v -1 -2 0
v -1 -1 0
v 0 -1 0
v -1 -2 0
v -2 -2 0
v -2 -1 0
v -1 -1 0
v -2 -2 0
v -3 -2 0
v -3 -1 0
v -2 -1 0
v -3 -2 0
v -4 -2 0
v -4 -1 0
v -3 -1 0
v -4 -2 0
v -5 -2 0
v -5 -1 0
v -4 -1 0
v -5 -2 0
v -6 -2 0
v -6 -1 0
v -5 -1 0
v -6 -2 0
v -7 -2 0
v -7 -1 0
v -6 -1 0
v -7 -2 0
v -8 -2 0
v -8 -1 0
v -7 -1 0
v -8 -2 0
v -9 -2 0
v -9 -1 0
v -8 -1 0
v -9 -2 0
v -10 -2 0
v -10 -1 0
v -9 -1 0
v -10 -2 0
v -11 -2 0
v -11 -1 0
v -10 -1 0
v -11 -2 0
v -12 -2 0
v -12 -1 0
v -11 -1 0
v -12 -2 0
v -13 -2 0
v -13 -1 0
v -12 -1 0
v -13 -2 0
v -14 -2 0
v -14 -1 0
v -13 -1 0
v -14 -2 0
v -15 -2 0
v -15 -1 0
v -14 -1 0
v -15 -2 0
v -16 -2 0
v -16 -1 0
v -15 -1 0
v -16 -2 0
v -17 -2 0
v -17 -1 0
v -16 -1 0
v -17 -2 0
v -18 -2 0
v -18 -1 0
v -17 -1 0
v -18 -2 0
v -19 -2 0
v -19 -1 0
v -18 -1 0
v -19 -2 0
v -20 -2 0
v -20 -1 0
v -19 -1 0
v -3 -1 0
v -4 -1 0
v -4 0 0
v -3 0 0
v -16 -1 0
v -17 -1 0
v -17 0 0
v -16 0 0

# Texture cooridinates (Count = 16)
vt 0.5014451 0.7008671
vt 0.5317919 0.7008671
vt 0.5317919 0.7312139
vt 0.5014451 0.7312139
vt 0.4349711 0.900289
vt 0.4653179 0.900289
vt 0.4653179 0.9306358
vt 0.4349711 0.9306358
vt 0.5014451 0.06936419
vt 0.5317919 0.06936419
vt 0.5317919 0.099711
vt 0.5014451 0.099711
vt 0.4017341 0.900289
vt 0.4320809 0.900289
vt 0.4320809 0.9306358
vt 0.4017341 0.9306358

# Normal
vn 0 0 -1

# Mesh description
g bunker1.4_mesh_0003

# Faces
f 1/1/1 2/2/1 3/3/1 4/4/1
f 5/5/1 6/6/1 7/7/1 8/8/1
f 9/5/1 10/6/1 11/7/1 12/8/1
f 13/5/1 14/6/1 15/7/1 16/8/1
f 17/5/1 18/6/1 19/7/1 20/8/1
f 21/5/1 22/6/1 23/7/1 24/8/1
f 25/5/1 26/6/1 27/7/1 28/8/1
f 29/5/1 30/6/1 31/7/1 32/8/1
f 33/9/1 34/10/1 35/11/1 36/12/1
f 37/9/1 38/10/1 39/11/1 40/12/1
f 41/9/1 42/10/1 43/11/1 44/12/1
f 45/9/1 46/10/1 47/11/1 48/12/1
f 49/9/1 50/10/1 51/11/1 52/12/1
f 53/9/1 54/10/1 55/11/1 56/12/1
f 57/9/1 58/10/1 59/11/1 60/12/1
f 61/9/1 62/10/1 63/11/1 64/12/1
f 65/9/1 66/10/1 67/11/1 68/12/1
f 69/9/1 70/10/1 71/11/1 72/12/1
f 73/9/1 74/10/1 75/11/1 76/12/1
f 77/9/1 78/10/1 79/11/1 80/12/1
f 81/9/1 82/10/1 83/11/1 84/12/1
f 85/9/1 86/10/1 87/11/1 88/12/1
f 89/9/1 90/10/1 91/11/1 92/12/1
f 93/9/1 94/10/1 95/11/1 96/12/1
f 97/9/1 98/10/1 99/11/1 100/12/1
f 101/9/1 102/10/1 103/11/1 104/12/1
f 105/9/1 106/10/1 107/11/1 108/12/1
f 109/9/1 110/10/1 111/11/1 112/12/1
f 113/13/1 114/14/1 115/15/1 116/16/1
f 117/13/1 118/14/1 119/15/1 120/16/1

