# Tiled2Unity generated file. Do not modify by hand.
# Wavefront file for 'bunker1.36_mesh_0002.obj'

# Vertices (Count = 16)
v -2 -5 0
v -3 -5 0
v -3 -4 0
v -2 -4 0
v -5 -5 0
v -6 -5 0
v -6 -4 0
v -5 -4 0
v -25 -12 0
v -26 -12 0
v -26 -11 0
v -25 -11 0
v -28 -12 0
v -29 -12 0
v -29 -11 0
v -28 -11 0

# Texture cooridinates (Count = 8)
vt 0.06936416 0.3020231
vt 0.09971099 0.3020231
vt 0.09971099 0.3323699
vt 0.06936416 0.3323699
vt 0.5679191 0.933526
vt 0.5982659 0.933526
vt 0.5982659 0.9638728
vt 0.5679191 0.9638728

# Normal
vn 0 0 -1

# Mesh description
g bunker1.36_mesh_0002

# Faces
f 1/1/1 2/2/1 3/3/1 4/4/1
f 5/5/1 6/6/1 7/7/1 8/8/1
f 9/1/1 10/2/1 11/3/1 12/4/1
f 13/5/1 14/6/1 15/7/1 16/8/1

