# Tiled2Unity generated file. Do not modify by hand.
# Wavefront file for 'bunk1.2new_mesh_0002.obj'

# Vertices (Count = 12)
v -3 -8 0
v -4 -8 0
v -4 -7 0
v -3 -7 0
v -8 -8 0
v -9 -8 0
v -9 -7 0
v -8 -7 0
v -11 -8 0
v -12 -8 0
v -12 -7 0
v -11 -7 0

# Texture cooridinates (Count = 8)
vt 0.4682081 0.5679191
vt 0.4985549 0.5679191
vt 0.4985549 0.5982659
vt 0.4682081 0.5982659
vt 0.3352601 0.900289
vt 0.3656069 0.900289
vt 0.3656069 0.9306358
vt 0.3352601 0.9306358

# Normal
vn 0 0 -1

# Mesh description
g bunk1.2new_mesh_0002

# Faces
f 1/1/1 2/2/1 3/3/1 4/4/1
f 5/5/1 6/6/1 7/7/1 8/8/1
f 9/5/1 10/6/1 11/7/1 12/8/1

