# Tiled2Unity generated file. Do not modify by hand.
# Wavefront file for 'bunker1.22neww._mesh_0001.obj'

# Vertices (Count = 192)
v 0 -10 0
v -1 -10 0
v -1 -9 0
v 0 -9 0
v -1 -10 0
v -2 -10 0
v -2 -9 0
v -1 -9 0
v -2 -10 0
v -3 -10 0
v -3 -9 0
v -2 -9 0
v -3 -10 0
v -4 -10 0
v -4 -9 0
v -3 -9 0
v -6 -10 0
v -7 -10 0
v -7 -9 0
v -6 -9 0
v -7 -10 0
v -8 -10 0
v -8 -9 0
v -7 -9 0
v -8 -10 0
v -9 -10 0
v -9 -9 0
v -8 -9 0
v -9 -10 0
v -10 -10 0
v -10 -9 0
v -9 -9 0
v -10 -10 0
v -11 -10 0
v -11 -9 0
v -10 -9 0
v -16 -10 0
v -17 -10 0
v -17 -9 0
v -16 -9 0
v -17 -10 0
v -18 -10 0
v -18 -9 0
v -17 -9 0
v -18 -10 0
v -19 -10 0
v -19 -9 0
v -18 -9 0
v -19 -10 0
v -20 -10 0
v -20 -9 0
v -19 -9 0
v 0 -9 0
v -1 -9 0
v -1 -8 0
v 0 -8 0
v -1 -9 0
v -2 -9 0
v -2 -8 0
v -1 -8 0
v -2 -9 0
v -3 -9 0
v -3 -8 0
v -2 -8 0
v -3 -9 0
v -4 -9 0
v -4 -8 0
v -3 -8 0
v -6 -9 0
v -7 -9 0
v -7 -8 0
v -6 -8 0
v -7 -9 0
v -8 -9 0
v -8 -8 0
v -7 -8 0
v -8 -9 0
v -9 -9 0
v -9 -8 0
v -8 -8 0
v -9 -9 0
v -10 -9 0
v -10 -8 0
v -9 -8 0
v -10 -9 0
v -11 -9 0
v -11 -8 0
v -10 -8 0
v -16 -9 0
v -17 -9 0
v -17 -8 0
v -16 -8 0
v -17 -9 0
v -18 -9 0
v -18 -8 0
v -17 -8 0
v -18 -9 0
v -19 -9 0
v -19 -8 0
v -18 -8 0
v -19 -9 0
v -20 -9 0
v -20 -8 0
v -19 -8 0
v 0 -8 0
v -1 -8 0
v -1 -7 0
v 0 -7 0
v -1 -8 0
v -2 -8 0
v -2 -7 0
v -1 -7 0
v -2 -8 0
v -3 -8 0
v -3 -7 0
v -2 -7 0
v -3 -8 0
v -4 -8 0
v -4 -7 0
v -3 -7 0
v -6 -8 0
v -7 -8 0
v -7 -7 0
v -6 -7 0
v -7 -8 0
v -8 -8 0
v -8 -7 0
v -7 -7 0
v -8 -8 0
v -9 -8 0
v -9 -7 0
v -8 -7 0
v -9 -8 0
v -10 -8 0
v -10 -7 0
v -9 -7 0
v -10 -8 0
v -11 -8 0
v -11 -7 0
v -10 -7 0
v -16 -8 0
v -17 -8 0
v -17 -7 0
v -16 -7 0
v -17 -8 0
v -18 -8 0
v -18 -7 0
v -17 -7 0
v -18 -8 0
v -19 -8 0
v -19 -7 0
v -18 -7 0
v -19 -8 0
v -20 -8 0
v -20 -7 0
v -19 -7 0
v -6 -7 0
v -7 -7 0
v -7 -6 0
v -6 -6 0
v -7 -7 0
v -8 -7 0
v -8 -6 0
v -7 -6 0
v -8 -7 0
v -9 -7 0
v -9 -6 0
v -8 -6 0
v -9 -7 0
v -10 -7 0
v -10 -6 0
v -9 -6 0
v -10 -7 0
v -11 -7 0
v -11 -6 0
v -10 -6 0
v -16 -7 0
v -17 -7 0
v -17 -6 0
v -16 -6 0
v -17 -7 0
v -18 -7 0
v -18 -6 0
v -17 -6 0
v -18 -7 0
v -19 -7 0
v -19 -6 0
v -18 -6 0
v -19 -7 0
v -20 -7 0
v -20 -6 0
v -19 -6 0

# Texture cooridinates (Count = 10)
vt 0 0.1515151
vt 0.1627907 0.1515151
vt 0.1627907 0.3636364
vt 0 0.3636364
vt 0.1627907 0.5757576
vt 0 0.5757576
vt 0.1627907 0.7878788
vt 0 0.7878788
vt 0.1627907 1
vt 0 1

# Normal
vn 0 0 -1

# Mesh description
g bunker1.22neww._mesh_0001

# Faces
f 1/1/1 2/2/1 3/3/1 4/4/1
f 5/1/1 6/2/1 7/3/1 8/4/1
f 9/1/1 10/2/1 11/3/1 12/4/1
f 13/1/1 14/2/1 15/3/1 16/4/1
f 17/1/1 18/2/1 19/3/1 20/4/1
f 21/1/1 22/2/1 23/3/1 24/4/1
f 25/1/1 26/2/1 27/3/1 28/4/1
f 29/1/1 30/2/1 31/3/1 32/4/1
f 33/1/1 34/2/1 35/3/1 36/4/1
f 37/1/1 38/2/1 39/3/1 40/4/1
f 41/1/1 42/2/1 43/3/1 44/4/1
f 45/1/1 46/2/1 47/3/1 48/4/1
f 49/1/1 50/2/1 51/3/1 52/4/1
f 53/4/1 54/3/1 55/5/1 56/6/1
f 57/4/1 58/3/1 59/5/1 60/6/1
f 61/4/1 62/3/1 63/5/1 64/6/1
f 65/4/1 66/3/1 67/5/1 68/6/1
f 69/4/1 70/3/1 71/5/1 72/6/1
f 73/4/1 74/3/1 75/5/1 76/6/1
f 77/4/1 78/3/1 79/5/1 80/6/1
f 81/4/1 82/3/1 83/5/1 84/6/1
f 85/4/1 86/3/1 87/5/1 88/6/1
f 89/4/1 90/3/1 91/5/1 92/6/1
f 93/4/1 94/3/1 95/5/1 96/6/1
f 97/4/1 98/3/1 99/5/1 100/6/1
f 101/4/1 102/3/1 103/5/1 104/6/1
f 105/6/1 106/5/1 107/7/1 108/8/1
f 109/6/1 110/5/1 111/7/1 112/8/1
f 113/6/1 114/5/1 115/7/1 116/8/1
f 117/6/1 118/5/1 119/7/1 120/8/1
f 121/6/1 122/5/1 123/7/1 124/8/1
f 125/6/1 126/5/1 127/7/1 128/8/1
f 129/6/1 130/5/1 131/7/1 132/8/1
f 133/6/1 134/5/1 135/7/1 136/8/1
f 137/6/1 138/5/1 139/7/1 140/8/1
f 141/6/1 142/5/1 143/7/1 144/8/1
f 145/6/1 146/5/1 147/7/1 148/8/1
f 149/6/1 150/5/1 151/7/1 152/8/1
f 153/6/1 154/5/1 155/7/1 156/8/1
f 157/8/1 158/7/1 159/9/1 160/10/1
f 161/8/1 162/7/1 163/9/1 164/10/1
f 165/8/1 166/7/1 167/9/1 168/10/1
f 169/8/1 170/7/1 171/9/1 172/10/1
f 173/8/1 174/7/1 175/9/1 176/10/1
f 177/8/1 178/7/1 179/9/1 180/10/1
f 181/8/1 182/7/1 183/9/1 184/10/1
f 185/8/1 186/7/1 187/9/1 188/10/1
f 189/8/1 190/7/1 191/9/1 192/10/1

